<svg width="14033" height="10607" viewBox="0 0 14033 10607" fill="none" xmlns="http://www.w3.org/2000/svg">
<path d="M13313.3 6676.16C13304.9 6366.81 13328.9 5839.26 13057.7 5622.05C12819.5 5431.34 12634.2 5690.16 12567.3 5898.95C12405.3 6405.45 12481.4 6963.96 12481.9 7486.8C12481.9 7494.73 12481.9 7502.66 12481.9 7511.57C12469.2 7896.46 12422.9 8312.8 12465 8696.95C12465 8696.95 12423.7 8312.06 12121.5 8477.01C11819.3 8641.96 12272.6 9507.59 12272.6 9507.59C12272.6 9507.59 11915.4 9246.54 11750.5 9466.48C11585.5 9686.41 11956.6 9933.59 11956.6 9933.59C11956.6 9933.59 11613 9837.49 11613 9933.59C11613 10029.7 11723 10112.2 12039 10153.5H13742.5C13742.5 10153.5 14017.5 10002.2 13962.5 9837.49C13907.5 9672.79 13618.7 9767.65 13618.7 9767.65C13618.7 9767.65 14058.6 9231.68 14031.1 8998.12C14003.6 8764.56 13440.1 9039.48 13440.1 9039.48C13440.1 9039.48 13879.8 7926.43 13797.3 7431.82C13732.4 7042.23 13430 7307.98 13265.3 7458.57C13304 7199.66 13320.1 6937.87 13313.3 6676.16Z" fill="#2040F9" stroke="white" stroke-linecap="round" stroke-linejoin="round"/>
<path opacity="0.5" d="M13313.3 6676.16C13304.9 6366.81 13328.9 5839.26 13057.7 5622.05C12819.5 5431.34 12634.2 5690.16 12567.3 5898.95C12405.3 6405.45 12481.4 6963.96 12481.9 7486.8C12481.9 7494.73 12481.9 7502.66 12481.9 7511.57C12469.2 7896.46 12422.9 8312.8 12465 8696.95C12465 8696.95 12423.7 8312.06 12121.5 8477.01C11819.3 8641.96 12272.6 9507.59 12272.6 9507.59C12272.6 9507.59 11915.4 9246.54 11750.5 9466.48C11585.5 9686.41 11956.6 9933.59 11956.6 9933.59C11956.6 9933.59 11613 9837.49 11613 9933.59C11613 10029.7 11723 10112.2 12039 10153.5H13742.5C13742.5 10153.5 14017.5 10002.2 13962.5 9837.49C13907.5 9672.79 13618.7 9767.65 13618.7 9767.65C13618.7 9767.65 14058.6 9231.68 14031.1 8998.12C14003.6 8764.56 13440.1 9039.48 13440.1 9039.48C13440.1 9039.48 13879.8 7926.43 13797.3 7431.82C13732.4 7042.23 13430 7307.98 13265.3 7458.57C13304 7199.66 13320.1 6937.87 13313.3 6676.16Z" fill="white"/>
<path d="M12766.7 10138.7L12890.5 6359.88" stroke="white" stroke-linecap="round" stroke-linejoin="round"/>
<path d="M12835.6 8558.5L13481.2 7953.92" stroke="white" stroke-linecap="round" stroke-linejoin="round"/>
<path d="M13137.7 8283.58L13275.2 7898.94" stroke="white" stroke-linecap="round" stroke-linejoin="round"/>
<path d="M12299.6 9025.61L12794.2 9561.58" stroke="white" stroke-linecap="round" stroke-linejoin="round"/>
<path d="M13618.7 9328.03L12794.2 9754.03" stroke="white" stroke-linecap="round" stroke-linejoin="round"/>
<path d="M13179.1 9575.21L13481.2 9561.58" stroke="white" stroke-linecap="round" stroke-linejoin="round"/>
<path d="M12766.7 10138.7L12890.5 6359.88" stroke="#2040F9" stroke-linecap="round" stroke-linejoin="round"/>
<path d="M12835.6 8558.5L13481.2 7953.92" stroke="#2040F9" stroke-linecap="round" stroke-linejoin="round"/>
<path d="M13137.7 8283.58L13275.2 7898.94" stroke="#2040F9" stroke-linecap="round" stroke-linejoin="round"/>
<path d="M12299.6 9025.61L12794.2 9561.58" stroke="#2040F9" stroke-linecap="round" stroke-linejoin="round"/>
<path d="M13618.7 9328.03L12794.2 9754.03" stroke="#2040F9" stroke-linecap="round" stroke-linejoin="round"/>
<path d="M13179.1 9575.21L13481.2 9561.58" stroke="#2040F9" stroke-linecap="round" stroke-linejoin="round"/>
<g opacity="0.8">
<path d="M12766.7 10138.7L12890.5 6359.88" stroke="white" stroke-linecap="round" stroke-linejoin="round"/>
<path d="M12835.6 8558.5L13481.2 7953.92" stroke="white" stroke-linecap="round" stroke-linejoin="round"/>
<path d="M13137.7 8283.58L13275.2 7898.94" stroke="white" stroke-linecap="round" stroke-linejoin="round"/>
<path d="M12299.6 9025.61L12794.2 9561.58" stroke="white" stroke-linecap="round" stroke-linejoin="round"/>
<path d="M13618.7 9328.03L12794.2 9754.03" stroke="white" stroke-linecap="round" stroke-linejoin="round"/>
<path d="M13179.1 9575.21L13481.2 9561.58" stroke="white" stroke-linecap="round" stroke-linejoin="round"/>
</g>
<path d="M10406.3 9375.08C10406.3 9759.23 10710.7 10070.8 10710.7 10070.8C10710.7 10070.8 11015.1 9759.23 11015.1 9375.08C11015.1 8990.94 10710.7 8679.36 10710.7 8679.36C10710.7 8679.36 10406.3 8990.69 10406.3 9375.08Z" fill="#2040F9"/>
<path d="M10195.3 9967.77C10343.9 10134.5 10595.1 10152.5 10595.1 10152.5C10595.1 10152.5 10607.2 9900.16 10459.6 9733.47C10312 9566.79 10059.8 9548.71 10059.8 9548.71C10059.8 9548.71 10047.5 9801.09 10195.3 9967.77Z" fill="#2040F9"/>
<path d="M10971 9727.77C10815.8 9887.52 10816.7 10140.2 10816.7 10140.2C10816.7 10140.2 11069.1 10133.5 11224.2 9973.47C11379.2 9813.47 11378.7 9561.09 11378.7 9561.09C11378.7 9561.09 11126.1 9567.78 10971 9727.77Z" fill="#2040F9"/>
<g opacity="0.5">
<path d="M10406.3 9375.08C10406.3 9759.23 10710.7 10070.8 10710.7 10070.8C10710.7 10070.8 11015.1 9759.23 11015.1 9375.08C11015.1 8990.94 10710.7 8679.36 10710.7 8679.36C10710.7 8679.36 10406.3 8990.69 10406.3 9375.08Z" fill="white"/>
<path d="M10710.7 10070.8V8679.36" stroke="white" stroke-linecap="round" stroke-linejoin="round"/>
<path d="M10710.7 9173.97L10540.3 9025.12" stroke="white" stroke-linecap="round" stroke-linejoin="round"/>
<path d="M10713.5 9403.82L10924.5 9098.18" stroke="white" stroke-linecap="round" stroke-linejoin="round"/>
<path d="M10710.7 9536.32L10459.1 9311.93" stroke="white" stroke-linecap="round" stroke-linejoin="round"/>
<path d="M10713.5 9714.9L10962.4 9493.23" stroke="white" stroke-linecap="round" stroke-linejoin="round"/>
<path d="M10713.5 9869.2L10518.5 9714.89" stroke="white" stroke-linecap="round" stroke-linejoin="round"/>
<path d="M10195.3 9967.77C10343.9 10134.5 10595.1 10152.5 10595.1 10152.5C10595.1 10152.5 10607.2 9900.16 10459.6 9733.47C10312 9566.79 10059.8 9548.71 10059.8 9548.71C10059.8 9548.71 10047.5 9801.09 10195.3 9967.77Z" fill="white"/>
<path d="M10595.1 10152.5L10059.8 9548.71" stroke="white" stroke-linecap="round" stroke-linejoin="round"/>
<path d="M10250.1 9763.44L10118.8 9764.43" stroke="white" stroke-linecap="round" stroke-linejoin="round"/>
<path d="M10339.7 9862.01L10313.7 9648.27" stroke="white" stroke-linecap="round" stroke-linejoin="round"/>
<path d="M10389.5 9920.71L10194.1 9919.97" stroke="white" stroke-linecap="round" stroke-linejoin="round"/>
<path d="M10459.4 9997L10481.9 9805.05" stroke="white" stroke-linecap="round" stroke-linejoin="round"/>
<path d="M10518.8 10063.9L10374.9 10072" stroke="white" stroke-linecap="round" stroke-linejoin="round"/>
<path d="M10971 9727.77C10815.8 9887.52 10816.7 10140.2 10816.7 10140.2C10816.7 10140.2 11069.1 10133.5 11224.2 9973.47C11379.2 9813.47 11378.7 9561.09 11378.7 9561.09C11378.7 9561.09 11126.1 9567.78 10971 9727.77Z" fill="white"/>
<path d="M10816.7 10140.2L11378.7 9561.09" stroke="white" stroke-linecap="round" stroke-linejoin="round"/>
<path d="M11178.8 9766.91L11168.2 9636.13" stroke="white" stroke-linecap="round" stroke-linejoin="round"/>
<path d="M11087.2 9863.75L11298.5 9821.64" stroke="white" stroke-linecap="round" stroke-linejoin="round"/>
<path d="M11032.5 9917.74L11018.6 9722.82" stroke="white" stroke-linecap="round" stroke-linejoin="round"/>
<path d="M10961.4 9993.04L11154.6 10001.5" stroke="white" stroke-linecap="round" stroke-linejoin="round"/>
<path d="M10899.2 10057.2L10880.4 9914.52" stroke="white" stroke-linecap="round" stroke-linejoin="round"/>
</g>
<path d="M10710.7 10070.8V8679.36" stroke="#2040F9" stroke-linecap="round" stroke-linejoin="round"/>
<path d="M10710.7 9173.97L10540.3 9025.12" stroke="#2040F9" stroke-linecap="round" stroke-linejoin="round"/>
<path d="M10713.5 9403.81L10924.5 9098.18" stroke="#2040F9" stroke-linecap="round" stroke-linejoin="round"/>
<path d="M10710.7 9536.32L10459.1 9311.93" stroke="#2040F9" stroke-linecap="round" stroke-linejoin="round"/>
<path d="M10713.5 9714.89L10962.4 9493.22" stroke="#2040F9" stroke-linecap="round" stroke-linejoin="round"/>
<path d="M10713.5 9869.2L10518.5 9714.89" stroke="#2040F9" stroke-linecap="round" stroke-linejoin="round"/>
<g opacity="0.7">
<path d="M10710.7 10070.8V8679.36" stroke="white" stroke-linecap="round" stroke-linejoin="round"/>
<path d="M10710.7 9173.97L10540.3 9025.12" stroke="white" stroke-linecap="round" stroke-linejoin="round"/>
<path d="M10713.5 9403.82L10924.5 9098.18" stroke="white" stroke-linecap="round" stroke-linejoin="round"/>
<path d="M10710.7 9536.32L10459.1 9311.93" stroke="white" stroke-linecap="round" stroke-linejoin="round"/>
<path d="M10713.5 9714.9L10962.4 9493.23" stroke="white" stroke-linecap="round" stroke-linejoin="round"/>
<path d="M10713.5 9869.2L10518.5 9714.89" stroke="white" stroke-linecap="round" stroke-linejoin="round"/>
</g>
<path d="M10595.1 10152.5L10059.9 9548.71" stroke="#2040F9" stroke-linecap="round" stroke-linejoin="round"/>
<path d="M10250.1 9763.44L10118.8 9764.43" stroke="#2040F9" stroke-linecap="round" stroke-linejoin="round"/>
<path d="M10339.7 9862.01L10313.7 9648.27" stroke="#2040F9" stroke-linecap="round" stroke-linejoin="round"/>
<path d="M10389.5 9920.71L10194.1 9919.97" stroke="#2040F9" stroke-linecap="round" stroke-linejoin="round"/>
<path d="M10459.4 9997L10481.9 9805.05" stroke="#2040F9" stroke-linecap="round" stroke-linejoin="round"/>
<path d="M10518.8 10063.9L10374.9 10072" stroke="#2040F9" stroke-linecap="round" stroke-linejoin="round"/>
<g opacity="0.7">
<path d="M10595.1 10152.5L10059.9 9548.71" stroke="white" stroke-linecap="round" stroke-linejoin="round"/>
<path d="M10250.1 9763.44L10118.8 9764.43" stroke="white" stroke-linecap="round" stroke-linejoin="round"/>
<path d="M10339.7 9862.01L10313.7 9648.27" stroke="white" stroke-linecap="round" stroke-linejoin="round"/>
<path d="M10389.5 9920.71L10194.1 9919.97" stroke="white" stroke-linecap="round" stroke-linejoin="round"/>
<path d="M10459.4 9997L10481.9 9805.05" stroke="white" stroke-linecap="round" stroke-linejoin="round"/>
<path d="M10518.8 10063.9L10374.9 10072" stroke="white" stroke-linecap="round" stroke-linejoin="round"/>
</g>
<path d="M10816.7 10140.2L11378.7 9561.09" stroke="#2040F9" stroke-linecap="round" stroke-linejoin="round"/>
<path d="M11178.8 9766.91L11168.2 9636.13" stroke="#2040F9" stroke-linecap="round" stroke-linejoin="round"/>
<path d="M11087.2 9863.75L11298.5 9821.64" stroke="#2040F9" stroke-linecap="round" stroke-linejoin="round"/>
<path d="M11032.5 9917.74L11018.6 9722.82" stroke="#2040F9" stroke-linecap="round" stroke-linejoin="round"/>
<path d="M10961.4 9993.04L11154.6 10001.5" stroke="#2040F9" stroke-linecap="round" stroke-linejoin="round"/>
<path d="M10899.2 10057.2L10880.4 9914.52" stroke="#2040F9" stroke-linecap="round" stroke-linejoin="round"/>
<g opacity="0.7">
<path d="M10816.7 10140.2L11378.7 9561.09" stroke="white" stroke-linecap="round" stroke-linejoin="round"/>
<path d="M11178.8 9766.91L11168.2 9636.13" stroke="white" stroke-linecap="round" stroke-linejoin="round"/>
<path d="M11087.2 9863.75L11298.5 9821.64" stroke="white" stroke-linecap="round" stroke-linejoin="round"/>
<path d="M11032.5 9917.74L11018.6 9722.82" stroke="white" stroke-linecap="round" stroke-linejoin="round"/>
<path d="M10961.4 9993.04L11154.6 10001.5" stroke="white" stroke-linecap="round" stroke-linejoin="round"/>
<path d="M10899.2 10057.2L10880.4 9914.52" stroke="white" stroke-linecap="round" stroke-linejoin="round"/>
</g>
<path d="M719.502 6676.16C727.675 6366.81 703.899 5839.26 975.103 5622.05C1213.37 5431.34 1398.63 5690.16 1465.25 5898.95C1627.48 6405.45 1551.2 6963.96 1550.95 7486.8C1550.95 7494.73 1550.95 7502.66 1550.95 7511.57C1563.83 7896.46 1609.9 8312.8 1568.04 8696.95C1568.04 8696.95 1609.15 8312.06 1911.57 8477.01C2213.98 8641.96 1760.24 9507.59 1760.24 9507.59C1760.24 9507.59 2117.63 9246.54 2282.58 9466.48C2447.54 9686.41 2077.01 9932.6 2077.01 9932.6C2077.01 9932.6 2420.54 9836.5 2420.54 9932.6C2420.54 10028.7 2310.57 10111.2 1994.54 10152.5H290.28C290.28 10152.5 15.36 10001.2 70.344 9836.5C125.328 9671.8 413.87 9767.65 413.87 9767.65C413.87 9767.65 -25.7543 9231.68 1.73768 8998.12C29.2297 8764.56 592.692 9039.48 592.692 9039.48C592.692 9039.48 152.82 7926.43 235.296 7432.56C300.187 7042.97 602.847 7308.72 767.304 7459.31C728.572 7200.15 712.578 6938.11 719.502 6676.16Z" fill="#2040F9" stroke="white" stroke-linecap="round" stroke-linejoin="round"/>
<path opacity="0.5" d="M719.502 6676.16C727.675 6366.81 703.899 5839.26 975.103 5622.05C1213.37 5431.34 1398.63 5690.16 1465.25 5898.95C1627.48 6405.45 1551.2 6963.96 1550.95 7486.8C1550.95 7494.73 1550.95 7502.66 1550.95 7511.57C1563.83 7896.46 1609.9 8312.8 1568.04 8696.95C1568.04 8696.95 1609.15 8312.06 1911.57 8477.01C2213.98 8641.96 1760.24 9507.59 1760.24 9507.59C1760.24 9507.59 2117.63 9246.54 2282.58 9466.48C2447.54 9686.41 2077.01 9932.6 2077.01 9932.6C2077.01 9932.6 2420.54 9836.5 2420.54 9932.6C2420.54 10028.7 2310.57 10111.2 1994.54 10152.5H290.28C290.28 10152.5 15.36 10001.2 70.344 9836.5C125.328 9671.8 413.87 9767.65 413.87 9767.65C413.87 9767.65 -25.7543 9231.68 1.73768 8998.12C29.2297 8764.56 592.692 9039.48 592.692 9039.48C592.692 9039.48 152.82 7926.43 235.296 7432.56C300.187 7042.97 602.847 7308.72 767.304 7459.31C728.572 7200.15 712.578 6938.11 719.502 6676.16Z" fill="white"/>
<path d="M1265.87 10138.7L1142.28 6359.88" stroke="white" stroke-linecap="round" stroke-linejoin="round"/>
<path d="M1197.27 8558.5L551.33 7953.92" stroke="white" stroke-linecap="round" stroke-linejoin="round"/>
<path d="M894.856 8283.58L757.396 7898.94" stroke="white" stroke-linecap="round" stroke-linejoin="round"/>
<path d="M1732.99 9025.61L1238.38 9561.58" stroke="white" stroke-linecap="round" stroke-linejoin="round"/>
<path d="M413.87 9328.03L1238.38 9754.03" stroke="white" stroke-linecap="round" stroke-linejoin="round"/>
<path d="M853.742 9575.21L551.33 9561.58" stroke="white" stroke-linecap="round" stroke-linejoin="round"/>
<path d="M1265.87 10138.7L1142.28 6359.88" stroke="#2040F9" stroke-linecap="round" stroke-linejoin="round"/>
<path d="M1197.27 8558.5L551.33 7953.92" stroke="#2040F9" stroke-linecap="round" stroke-linejoin="round"/>
<path d="M894.856 8283.58L757.396 7898.94" stroke="#2040F9" stroke-linecap="round" stroke-linejoin="round"/>
<path d="M1732.99 9025.61L1238.38 9561.58" stroke="#2040F9" stroke-linecap="round" stroke-linejoin="round"/>
<path d="M413.87 9328.03L1238.38 9754.03" stroke="#2040F9" stroke-linecap="round" stroke-linejoin="round"/>
<path d="M853.742 9575.21L551.33 9561.58" stroke="#2040F9" stroke-linecap="round" stroke-linejoin="round"/>
<g opacity="0.8">
<path d="M1265.87 10138.7L1142.28 6359.88" stroke="white" stroke-linecap="round" stroke-linejoin="round"/>
<path d="M1197.27 8558.5L551.33 7953.92" stroke="white" stroke-linecap="round" stroke-linejoin="round"/>
<path d="M894.856 8283.58L757.396 7898.94" stroke="white" stroke-linecap="round" stroke-linejoin="round"/>
<path d="M1732.99 9025.61L1238.38 9561.58" stroke="white" stroke-linecap="round" stroke-linejoin="round"/>
<path d="M413.87 9328.03L1238.38 9754.03" stroke="white" stroke-linecap="round" stroke-linejoin="round"/>
<path d="M853.742 9575.21L551.33 9561.58" stroke="white" stroke-linecap="round" stroke-linejoin="round"/>
</g>
<path d="M3676.01 9375.08C3676.01 9759.23 3371.61 10070.8 3371.61 10070.8C3371.61 10070.8 3067.72 9759.23 3067.72 9375.08C3067.72 8990.94 3372.11 8679.36 3372.11 8679.36C3372.11 8679.36 3676.01 8990.69 3676.01 9375.08Z" fill="#2040F9"/>
<path d="M3886.78 9967.77C3738.17 10134.5 3487.03 10152.5 3487.03 10152.5C3487.03 10152.5 3474.9 9900.16 3622.76 9733.47C3770.62 9566.79 4022.51 9548.71 4022.51 9548.71C4022.51 9548.71 4033.65 9801.09 3886.78 9967.77Z" fill="#2040F9"/>
<path d="M3111.31 9727.77C3266.35 9887.52 3265.61 10140.2 3265.61 10140.2C3265.61 10140.2 3013.23 10133.5 2857.93 9973.47C2702.64 9813.47 2703.63 9561.09 2703.63 9561.09C2703.63 9561.09 2956.01 9567.78 3111.31 9727.77Z" fill="#2040F9"/>
<g opacity="0.5">
<path d="M3676.01 9375.08C3676.01 9759.23 3371.61 10070.8 3371.61 10070.8C3371.61 10070.8 3067.72 9759.23 3067.72 9375.08C3067.72 8990.94 3372.11 8679.36 3372.11 8679.36C3372.11 8679.36 3676.01 8990.69 3676.01 9375.08Z" fill="white"/>
<path d="M3371.61 10070.8V8679.36" stroke="white" stroke-linecap="round" stroke-linejoin="round"/>
<path d="M3371.61 9173.97L3542.01 9025.12" stroke="white" stroke-linecap="round" stroke-linejoin="round"/>
<path d="M3368.89 9403.82L3157.87 9098.18" stroke="white" stroke-linecap="round" stroke-linejoin="round"/>
<path d="M3371.61 9536.32L3623.25 9311.93" stroke="white" stroke-linecap="round" stroke-linejoin="round"/>
<path d="M3368.89 9714.9L3119.98 9493.23" stroke="white" stroke-linecap="round" stroke-linejoin="round"/>
<path d="M3368.89 9869.2L3563.56 9714.89" stroke="white" stroke-linecap="round" stroke-linejoin="round"/>
<path d="M3886.78 9967.77C3738.17 10134.5 3487.03 10152.5 3487.03 10152.5C3487.03 10152.5 3474.9 9900.16 3622.76 9733.47C3770.62 9566.79 4022.51 9548.71 4022.51 9548.71C4022.51 9548.71 4033.65 9801.09 3886.78 9967.77Z" fill="white"/>
<path d="M3487.03 10152.5L4022.51 9548.71" stroke="white" stroke-linecap="round" stroke-linejoin="round"/>
<path d="M3832.29 9763.44L3963.31 9764.43" stroke="white" stroke-linecap="round" stroke-linejoin="round"/>
<path d="M3742.63 9862.01L3768.64 9648.27" stroke="white" stroke-linecap="round" stroke-linejoin="round"/>
<path d="M3692.6 9920.71L3888.27 9919.97" stroke="white" stroke-linecap="round" stroke-linejoin="round"/>
<path d="M3622.76 9997L3600.22 9805.05" stroke="white" stroke-linecap="round" stroke-linejoin="round"/>
<path d="M3563.56 10063.9L3707.46 10072" stroke="white" stroke-linecap="round" stroke-linejoin="round"/>
<path d="M3111.31 9727.77C3266.35 9887.52 3265.61 10140.2 3265.61 10140.2C3265.61 10140.2 3013.23 10133.5 2857.93 9973.47C2702.64 9813.47 2703.63 9561.09 2703.63 9561.09C2703.63 9561.09 2956.01 9567.78 3111.31 9727.77Z" fill="white"/>
<path d="M3265.61 10140.2L2703.63 9561.09" stroke="white" stroke-linecap="round" stroke-linejoin="round"/>
<path d="M2903.26 9766.91L2914.16 9636.13" stroke="white" stroke-linecap="round" stroke-linejoin="round"/>
<path d="M2995.15 9863.75L2783.88 9821.64" stroke="white" stroke-linecap="round" stroke-linejoin="round"/>
<path d="M3049.64 9917.74L3063.75 9722.82" stroke="white" stroke-linecap="round" stroke-linejoin="round"/>
<path d="M3120.72 9993.04L2927.53 10001.5" stroke="white" stroke-linecap="round" stroke-linejoin="round"/>
<path d="M3183.13 10057.2L3201.71 9914.52" stroke="white" stroke-linecap="round" stroke-linejoin="round"/>
</g>
<path d="M3371.61 10070.8V8679.36" stroke="#2040F9" stroke-linecap="round" stroke-linejoin="round"/>
<path d="M3371.61 9173.97L3542.01 9025.12" stroke="#2040F9" stroke-linecap="round" stroke-linejoin="round"/>
<path d="M3368.89 9403.81L3157.87 9098.18" stroke="#2040F9" stroke-linecap="round" stroke-linejoin="round"/>
<path d="M3371.61 9536.32L3623.25 9311.93" stroke="#2040F9" stroke-linecap="round" stroke-linejoin="round"/>
<path d="M3368.89 9714.89L3119.98 9493.22" stroke="#2040F9" stroke-linecap="round" stroke-linejoin="round"/>
<path d="M3368.89 9869.2L3563.56 9714.89" stroke="#2040F9" stroke-linecap="round" stroke-linejoin="round"/>
<g opacity="0.7">
<path d="M3371.61 10070.8V8679.36" stroke="white" stroke-linecap="round" stroke-linejoin="round"/>
<path d="M3371.61 9173.97L3542.01 9025.12" stroke="white" stroke-linecap="round" stroke-linejoin="round"/>
<path d="M3368.89 9403.82L3157.87 9098.18" stroke="white" stroke-linecap="round" stroke-linejoin="round"/>
<path d="M3371.61 9536.32L3623.25 9311.93" stroke="white" stroke-linecap="round" stroke-linejoin="round"/>
<path d="M3368.89 9714.9L3119.98 9493.23" stroke="white" stroke-linecap="round" stroke-linejoin="round"/>
<path d="M3368.89 9869.2L3563.56 9714.89" stroke="white" stroke-linecap="round" stroke-linejoin="round"/>
</g>
<path d="M3487.03 10152.5L4022.51 9548.71" stroke="#2040F9" stroke-linecap="round" stroke-linejoin="round"/>
<path d="M3832.29 9763.44L3963.31 9764.43" stroke="#2040F9" stroke-linecap="round" stroke-linejoin="round"/>
<path d="M3742.63 9862.01L3768.64 9648.27" stroke="#2040F9" stroke-linecap="round" stroke-linejoin="round"/>
<path d="M3692.6 9920.71L3888.27 9919.97" stroke="#2040F9" stroke-linecap="round" stroke-linejoin="round"/>
<path d="M3622.76 9997L3600.22 9805.05" stroke="#2040F9" stroke-linecap="round" stroke-linejoin="round"/>
<path d="M3563.56 10063.9L3707.46 10072" stroke="#2040F9" stroke-linecap="round" stroke-linejoin="round"/>
<g opacity="0.7">
<path d="M3487.03 10152.5L4022.51 9548.71" stroke="white" stroke-linecap="round" stroke-linejoin="round"/>
<path d="M3832.29 9763.44L3963.31 9764.43" stroke="white" stroke-linecap="round" stroke-linejoin="round"/>
<path d="M3742.63 9862.01L3768.64 9648.27" stroke="white" stroke-linecap="round" stroke-linejoin="round"/>
<path d="M3692.6 9920.71L3888.27 9919.97" stroke="white" stroke-linecap="round" stroke-linejoin="round"/>
<path d="M3622.76 9997L3600.22 9805.05" stroke="white" stroke-linecap="round" stroke-linejoin="round"/>
<path d="M3563.56 10063.9L3707.46 10072" stroke="white" stroke-linecap="round" stroke-linejoin="round"/>
</g>
<path d="M3265.61 10140.2L2703.63 9561.09" stroke="#2040F9" stroke-linecap="round" stroke-linejoin="round"/>
<path d="M2903.26 9766.91L2914.16 9636.13" stroke="#2040F9" stroke-linecap="round" stroke-linejoin="round"/>
<path d="M2995.15 9863.75L2783.88 9821.64" stroke="#2040F9" stroke-linecap="round" stroke-linejoin="round"/>
<path d="M3049.64 9917.74L3063.75 9722.82" stroke="#2040F9" stroke-linecap="round" stroke-linejoin="round"/>
<path d="M3120.72 9993.04L2927.53 10001.5" stroke="#2040F9" stroke-linecap="round" stroke-linejoin="round"/>
<path d="M3183.13 10057.2L3201.71 9914.52" stroke="#2040F9" stroke-linecap="round" stroke-linejoin="round"/>
<g opacity="0.7">
<path d="M3265.61 10140.2L2703.63 9561.09" stroke="white" stroke-linecap="round" stroke-linejoin="round"/>
<path d="M2903.26 9766.91L2914.16 9636.13" stroke="white" stroke-linecap="round" stroke-linejoin="round"/>
<path d="M2995.15 9863.75L2783.88 9821.64" stroke="white" stroke-linecap="round" stroke-linejoin="round"/>
<path d="M3049.64 9917.74L3063.75 9722.82" stroke="white" stroke-linecap="round" stroke-linejoin="round"/>
<path d="M3120.72 9993.04L2927.53 10001.5" stroke="white" stroke-linecap="round" stroke-linejoin="round"/>
<path d="M3183.13 10057.2L3201.71 9914.52" stroke="white" stroke-linecap="round" stroke-linejoin="round"/>
</g>
<path d="M10532.2 2791.61H3836.75C3834.74 2791.65 3832.75 2791.28 3830.89 2790.54C3829.03 2789.79 3827.33 2788.68 3825.91 2787.28C3824.48 2785.87 3823.34 2784.2 3822.57 2782.35C3821.79 2780.5 3821.39 2778.51 3821.39 2776.51C3821.39 2772.43 3823.01 2768.53 3825.89 2765.65C3828.77 2762.77 3832.68 2761.15 3836.75 2761.15H10532.2C10534.2 2761.15 10536.2 2761.55 10538 2762.32C10539.9 2763.1 10541.5 2764.23 10542.9 2765.66C10544.3 2767.09 10545.5 2768.79 10546.2 2770.65C10546.9 2772.51 10547.3 2774.5 10547.3 2776.51C10547.3 2780.51 10545.7 2784.36 10542.9 2787.19C10540 2790.02 10536.2 2791.61 10532.2 2791.61Z" fill="#2040F9"/>
<g opacity="0.3">
<path d="M10532.2 2791.61H3836.75C3834.74 2791.65 3832.75 2791.28 3830.89 2790.54C3829.03 2789.79 3827.33 2788.68 3825.91 2787.28C3824.48 2785.87 3823.34 2784.2 3822.57 2782.35C3821.79 2780.5 3821.39 2778.51 3821.39 2776.51C3821.39 2772.43 3823.01 2768.53 3825.89 2765.65C3828.77 2762.77 3832.68 2761.15 3836.75 2761.15H10532.2C10534.2 2761.15 10536.2 2761.55 10538 2762.32C10539.9 2763.1 10541.5 2764.23 10542.9 2765.66C10544.3 2767.09 10545.5 2768.79 10546.2 2770.65C10546.9 2772.51 10547.3 2774.5 10547.3 2776.51C10547.3 2780.51 10545.7 2784.36 10542.9 2787.19C10540 2790.02 10536.2 2791.61 10532.2 2791.61Z" fill="white"/>
</g>
<path d="M10518.8 5447.19H3823.37C3821.37 5447.23 3819.38 5446.86 3817.52 5446.12C3815.66 5445.37 3813.96 5444.26 3812.53 5442.86C3811.1 5441.45 3809.97 5439.77 3809.19 5437.92C3808.42 5436.08 3808.02 5434.09 3808.02 5432.09C3808.02 5428.01 3809.64 5424.11 3812.52 5421.23C3815.4 5418.35 3819.3 5416.73 3823.37 5416.73H10518.8C10520.8 5416.73 10522.8 5417.13 10524.6 5417.9C10526.5 5418.68 10528.2 5419.81 10529.6 5421.24C10531 5422.67 10532.1 5424.37 10532.8 5426.23C10533.6 5428.09 10533.9 5430.08 10533.9 5432.09C10533.9 5434.07 10533.5 5436.03 10532.8 5437.87C10532 5439.7 10530.9 5441.37 10529.5 5442.77C10528.1 5444.17 10526.4 5445.28 10524.6 5446.04C10522.7 5446.8 10520.8 5447.19 10518.8 5447.19Z" fill="#2040F9"/>
<g opacity="0.3">
<path d="M10518.8 5447.19H3823.37C3821.37 5447.23 3819.38 5446.86 3817.52 5446.12C3815.66 5445.37 3813.96 5444.26 3812.53 5442.86C3811.1 5441.45 3809.97 5439.77 3809.19 5437.92C3808.42 5436.08 3808.02 5434.09 3808.02 5432.09C3808.02 5428.01 3809.64 5424.11 3812.52 5421.23C3815.4 5418.35 3819.3 5416.73 3823.37 5416.73H10518.8C10520.8 5416.73 10522.8 5417.13 10524.6 5417.9C10526.5 5418.68 10528.2 5419.81 10529.6 5421.24C10531 5422.67 10532.1 5424.37 10532.8 5426.23C10533.6 5428.09 10533.9 5430.08 10533.9 5432.09C10533.9 5434.07 10533.5 5436.03 10532.8 5437.87C10532 5439.7 10530.9 5441.37 10529.5 5442.77C10528.1 5444.17 10526.4 5445.28 10524.6 5446.04C10522.7 5446.8 10520.8 5447.19 10518.8 5447.19Z" fill="white"/>
</g>
<path d="M10518.8 7618.07H3823.37C3819.3 7618.07 3815.4 7616.45 3812.52 7613.57C3809.64 7610.69 3808.02 7606.79 3808.02 7602.72C3808.02 7600.71 3808.42 7598.73 3809.19 7596.88C3809.97 7595.03 3811.1 7593.35 3812.53 7591.94C3813.96 7590.54 3815.66 7589.43 3817.52 7588.69C3819.38 7587.94 3821.37 7587.57 3823.37 7587.61H10518.8C10520.8 7587.61 10522.7 7588 10524.6 7588.76C10526.4 7589.52 10528.1 7590.63 10529.5 7592.03C10530.9 7593.44 10532 7595.1 10532.8 7596.93C10533.5 7598.77 10533.9 7600.73 10533.9 7602.72C10533.9 7604.72 10533.6 7606.71 10532.8 7608.57C10532.1 7610.43 10531 7612.13 10529.6 7613.56C10528.2 7614.99 10526.5 7616.12 10524.6 7616.9C10522.8 7617.67 10520.8 7618.07 10518.8 7618.07Z" fill="#2040F9"/>
<g opacity="0.3">
<path d="M10518.8 7618.07H3823.37C3819.3 7618.07 3815.4 7616.45 3812.52 7613.57C3809.64 7610.69 3808.02 7606.79 3808.02 7602.72C3808.02 7600.71 3808.42 7598.73 3809.19 7596.88C3809.97 7595.03 3811.1 7593.35 3812.53 7591.94C3813.96 7590.54 3815.66 7589.43 3817.52 7588.69C3819.38 7587.94 3821.37 7587.57 3823.37 7587.61H10518.8C10520.8 7587.61 10522.7 7588 10524.6 7588.76C10526.4 7589.52 10528.1 7590.63 10529.5 7592.03C10530.9 7593.44 10532 7595.1 10532.8 7596.93C10533.5 7598.77 10533.9 7600.73 10533.9 7602.72C10533.9 7604.72 10533.6 7606.71 10532.8 7608.57C10532.1 7610.43 10531 7612.13 10529.6 7613.56C10528.2 7614.99 10526.5 7616.12 10524.6 7616.9C10522.8 7617.67 10520.8 7618.07 10518.8 7618.07Z" fill="white"/>
</g>
<path d="M5246.77 7985.38V10244.7" stroke="#263238" stroke-width="0.265171" stroke-miterlimit="10"/>
<path d="M5569.49 7985.38V10244.7" stroke="#263238" stroke-width="0.265171" stroke-miterlimit="10"/>
<path d="M5892.21 7985.38V10244.7" stroke="#263238" stroke-width="0.265171" stroke-miterlimit="10"/>
<path d="M6214.93 7985.38V10244.7" stroke="#263238" stroke-width="0.265171" stroke-miterlimit="10"/>
<path d="M6537.65 7985.38V10244.7" stroke="#263238" stroke-width="0.265171" stroke-miterlimit="10"/>
<path d="M6860.37 7985.38V10244.7" stroke="#263238" stroke-width="0.265171" stroke-miterlimit="10"/>
<path d="M7183.1 7985.38V10244.7" stroke="#263238" stroke-width="0.265171" stroke-miterlimit="10"/>
<path d="M7505.82 7985.38V10244.7" stroke="#263238" stroke-width="0.265171" stroke-miterlimit="10"/>
<path d="M7828.54 7985.38V10244.7" stroke="#263238" stroke-width="0.265171" stroke-miterlimit="10"/>
<path d="M8151.26 7985.38V10244.7" stroke="#263238" stroke-width="0.265171" stroke-miterlimit="10"/>
<path d="M8473.98 7985.38V10244.7" stroke="#263238" stroke-width="0.265171" stroke-miterlimit="10"/>
<path d="M8796.7 7985.38V10244.7" stroke="#263238" stroke-width="0.265171" stroke-miterlimit="10"/>
<path d="M5262.87 8195.16H8780.6" stroke="#263238" stroke-width="0.265171" stroke-miterlimit="10"/>
<path d="M5262.87 8501.78H8780.6" stroke="#263238" stroke-width="0.265171" stroke-miterlimit="10"/>
<path d="M5262.87 8808.4H8780.6" stroke="#263238" stroke-width="0.265171" stroke-miterlimit="10"/>
<path d="M5262.87 9115.02H8780.6" stroke="#263238" stroke-width="0.265171" stroke-miterlimit="10"/>
<path d="M5262.87 9421.65H8780.6" stroke="#263238" stroke-width="0.265171" stroke-miterlimit="10"/>
<path d="M5262.87 9728.27H8780.6" stroke="#263238" stroke-width="0.265171" stroke-miterlimit="10"/>
<path d="M5262.87 10034.9H8780.6" stroke="#263238" stroke-width="0.265171" stroke-miterlimit="10"/>
<path d="M6001.93 8777.94L5529.86 10233.3H6518.58L6046.26 8777.94C6044.76 8773.24 6041.8 8769.15 6037.81 8766.24C6033.83 8763.34 6029.03 8761.77 6024.1 8761.77C6019.17 8761.77 6014.36 8763.34 6010.38 8766.24C6006.4 8769.15 6003.44 8773.24 6001.93 8777.94Z" fill="#2040F9" stroke="#263238" stroke-width="1.06068" stroke-miterlimit="10"/>
<path d="M6901.98 8295.96L6273.63 10233.3H7575.41L6946.32 8295.96C6944.81 8291.27 6941.85 8287.17 6937.87 8284.27C6933.88 8281.36 6929.08 8279.8 6924.15 8279.8C6919.22 8279.8 6914.42 8281.36 6910.43 8284.27C6906.45 8287.17 6903.49 8291.27 6901.98 8295.96Z" fill="#263238" stroke="#263238" stroke-width="1.06068" stroke-miterlimit="10"/>
<path d="M7730.21 9110.81L7365.88 10233.3H8138.63L7773.55 9110.81C7771.84 9106.46 7768.86 9102.72 7765 9100.08C7761.13 9097.45 7756.56 9096.04 7751.88 9096.04C7747.2 9096.04 7742.63 9097.45 7738.77 9100.08C7734.9 9102.72 7731.92 9106.46 7730.21 9110.81Z" fill="#2040F9" stroke="#263238" stroke-width="1.06068" stroke-miterlimit="10"/>
<path d="M8229.28 9496.2L7990.27 10233.3H8512.62L8273.61 9496.2C8272.1 9491.5 8269.15 9487.41 8265.16 9484.5C8261.18 9481.6 8256.38 9480.03 8251.45 9480.03C8246.51 9480.03 8241.71 9481.6 8237.73 9484.5C8233.74 9487.41 8230.79 9491.5 8229.28 9496.2Z" fill="#263238" stroke="#263238" stroke-width="1.06068" stroke-miterlimit="10"/>
<path d="M5204.17 7271.33C5062.55 7271.33 4924.11 7229.33 4806.36 7150.65C4688.61 7071.98 4596.84 6960.15 4542.64 6829.31C4488.45 6698.47 4474.27 6554.5 4501.89 6415.61C4529.52 6276.71 4597.72 6149.12 4697.86 6048.99C4798 5948.85 4925.58 5880.65 5064.48 5853.02C5203.37 5825.4 5347.34 5839.57 5478.18 5893.77C5609.02 5947.96 5720.85 6039.74 5799.52 6157.49C5878.2 6275.24 5920.2 6413.68 5920.2 6555.3C5920 6745.14 5844.5 6927.15 5710.26 7061.39C5576.02 7195.63 5394.01 7271.13 5204.17 7271.33ZM5204.17 6049.54C5104.15 6049.59 5006.39 6079.29 4923.25 6134.9C4840.11 6190.5 4775.33 6269.5 4737.09 6361.92C4698.85 6454.34 4688.87 6556.03 4708.41 6654.12C4727.95 6752.21 4776.14 6842.3 4846.88 6913C4917.62 6983.71 5007.74 7031.86 5105.84 7051.35C5203.94 7070.84 5305.62 7060.81 5398.02 7022.53C5490.42 6984.24 5569.39 6919.42 5624.95 6836.25C5680.51 6753.09 5710.17 6655.31 5710.17 6555.3C5710.04 6421.16 5656.68 6292.56 5561.8 6197.73C5466.93 6102.9 5338.3 6049.61 5204.17 6049.54Z" fill="#263238" stroke="#263238" stroke-width="1.06068" stroke-miterlimit="10"/>
<path d="M5204.17 7271.33C5107.53 7271.62 5011.85 7252.21 4922.97 7214.26C4834.1 7176.32 4753.89 7120.65 4687.27 7050.65L4839.09 6905.26C4886.13 6954.71 4942.78 6994.04 5005.55 7020.83C5068.33 7047.62 5135.92 7061.3 5204.17 7061.05C5270.58 7061.05 5336.35 7047.97 5397.71 7022.55C5459.07 6997.14 5514.83 6959.88 5561.79 6912.92C5608.75 6865.95 5646.01 6810.2 5671.42 6748.84C5696.84 6687.48 5709.92 6621.71 5709.92 6555.3C5709.92 6488.88 5696.84 6423.11 5671.42 6361.75C5646.01 6300.39 5608.75 6244.64 5561.79 6197.67C5514.83 6150.71 5459.07 6113.46 5397.71 6088.04C5336.35 6062.62 5270.58 6049.54 5204.17 6049.54V5839.27C5298.2 5839.27 5391.31 5857.79 5478.18 5893.77C5565.05 5929.75 5643.99 5982.5 5710.48 6048.99C5776.97 6115.48 5829.71 6194.41 5865.69 6281.28C5901.68 6368.16 5920.2 6461.27 5920.2 6555.3C5920.2 6649.33 5901.68 6742.44 5865.69 6829.31C5829.71 6916.18 5776.97 6995.12 5710.48 7061.61C5643.99 7128.1 5565.05 7180.84 5478.18 7216.82C5391.31 7252.81 5298.2 7271.33 5204.17 7271.33Z" fill="#2040F9" stroke="#263238" stroke-width="1.06068" stroke-miterlimit="10"/>
<path d="M6970.1 7271.33C6828.47 7271.37 6690.01 7229.42 6572.22 7150.77C6454.44 7072.13 6362.63 6960.31 6308.39 6829.48C6254.16 6698.65 6239.95 6554.67 6267.55 6415.76C6295.15 6276.84 6363.32 6149.24 6463.45 6049.07C6563.58 5948.91 6691.16 5880.69 6830.07 5853.04C6968.97 5825.39 7112.95 5839.56 7243.8 5893.75C7374.66 5947.93 7486.5 6039.71 7565.19 6157.46C7643.88 6275.22 7685.88 6413.67 7685.88 6555.3C7685.68 6745.1 7610.21 6927.07 7476.03 7061.3C7341.84 7195.53 7159.9 7271.06 6970.1 7271.33ZM6970.1 6049.54C6870.09 6049.64 6772.35 6079.38 6689.25 6135.02C6606.14 6190.65 6541.4 6269.67 6503.19 6362.09C6464.99 6454.52 6455.05 6556.19 6474.62 6654.27C6494.19 6752.34 6542.39 6842.41 6613.14 6913.09C6683.89 6983.77 6774.01 7031.89 6872.11 7051.37C6970.2 7070.84 7071.86 7060.8 7164.25 7022.5C7256.63 6984.21 7335.59 6919.39 7391.14 6836.23C7446.7 6753.07 7476.34 6655.3 7476.34 6555.3C7476.15 6421.14 7422.73 6292.53 7327.82 6197.72C7232.91 6102.9 7104.26 6049.61 6970.1 6049.54Z" fill="#263238" stroke="#263238" stroke-width="1.06068" stroke-miterlimit="10"/>
<path d="M7248.73 7214.86L7167 7021.42C7274.41 6975.89 7362.79 6894.65 7417.17 6791.44C7471.56 6688.24 7488.62 6569.41 7465.45 6455.07C7442.29 6340.73 7380.33 6237.91 7290.06 6164.01C7199.79 6090.11 7086.75 6049.67 6970.09 6049.54V5839.27C7135.31 5839.28 7295.43 5896.43 7423.32 6001.03C7551.21 6105.62 7639 6251.22 7671.8 6413.15C7704.6 6575.07 7680.39 6743.36 7603.28 6889.47C7526.18 7035.59 7400.91 7150.55 7248.73 7214.86Z" fill="#2040F9" stroke="#263238" stroke-width="1.06068" stroke-miterlimit="10"/>
<path d="M8735.78 7271.33C8594.16 7271.33 8455.72 7229.33 8337.97 7150.65C8220.22 7071.98 8128.44 6960.15 8074.25 6829.31C8020.06 6698.47 8005.87 6554.5 8033.5 6415.61C8061.13 6276.71 8129.33 6149.12 8229.47 6048.99C8329.6 5948.85 8457.19 5880.65 8596.08 5853.02C8734.98 5825.4 8878.95 5839.57 9009.79 5893.77C9140.63 5947.96 9252.45 6039.74 9331.13 6157.49C9409.81 6275.24 9451.81 6413.68 9451.81 6555.3C9451.61 6745.14 9376.11 6927.15 9241.87 7061.39C9107.63 7195.63 8925.62 7271.13 8735.78 7271.33ZM8735.78 6049.54C8635.75 6049.54 8537.96 6079.2 8454.79 6134.78C8371.62 6190.35 8306.8 6269.34 8268.52 6361.75C8230.24 6454.17 8220.22 6555.86 8239.74 6653.96C8259.25 6752.07 8307.42 6842.19 8378.15 6912.92C8448.88 6983.65 8539 7031.82 8637.11 7051.33C8735.21 7070.85 8836.9 7060.83 8929.32 7022.55C9021.73 6984.27 9100.72 6919.45 9156.29 6836.28C9211.87 6753.11 9241.53 6655.32 9241.53 6555.3C9241.4 6421.2 9188.07 6292.64 9093.25 6197.82C8998.43 6103 8869.87 6049.67 8735.78 6049.54Z" fill="#263238" stroke="#263238" stroke-width="1.06068" stroke-miterlimit="10"/>
<path d="M9231.62 6454.49C9208.13 6340.37 9146.06 6237.81 9055.85 6164.07C8965.64 6090.32 8852.79 6049.88 8736.27 6049.54V5839.27C8901.29 5839.69 9061.14 5896.92 9188.93 6001.34C9316.71 6105.76 9404.65 6251 9437.94 6412.63L9231.62 6454.49Z" fill="#2040F9" stroke="#263238" stroke-width="1.06068" stroke-miterlimit="10"/>
<path d="M5489.74 5046.46H8852.43" stroke="#263238" stroke-width="1.06068" stroke-miterlimit="10"/>
<path d="M5489.74 5046.46V4974.88" stroke="#263238" stroke-width="1.06068" stroke-miterlimit="10"/>
<path d="M6162.18 5046.46V4974.88" stroke="#263238" stroke-width="1.06068" stroke-miterlimit="10"/>
<path d="M6834.86 5046.46V4974.88" stroke="#263238" stroke-width="1.06068" stroke-miterlimit="10"/>
<path d="M7507.3 5046.46V4974.88" stroke="#263238" stroke-width="1.06068" stroke-miterlimit="10"/>
<path d="M8179.74 5046.46V4974.88" stroke="#263238" stroke-width="1.06068" stroke-miterlimit="10"/>
<path d="M8852.43 5046.46V4974.88" stroke="#263238" stroke-width="1.06068" stroke-miterlimit="10"/>
<path d="M6068.06 4090.67H5583.85V4664.04H6068.06V4090.67Z" fill="#2040F9" stroke="#263238" stroke-width="1.06068" stroke-miterlimit="10"/>
<path d="M6740.5 3421.7H6256.29V4759.65H6740.5V3421.7Z" fill="#2040F9" stroke="#263238" stroke-width="1.06068" stroke-miterlimit="10"/>
<path d="M7413.19 2485.24H6928.98V3976.25H7413.19V2485.24Z" fill="#2040F9" stroke="#263238" stroke-width="1.06068" stroke-miterlimit="10"/>
<path d="M8085.63 3880.65H7601.42V4167.45H8085.63V3880.65Z" fill="#2040F9" stroke="#263238" stroke-width="1.06068" stroke-miterlimit="10"/>
<path d="M8758.07 3708.51H8273.86V4454.01H8758.07V3708.51Z" fill="#2040F9" stroke="#263238" stroke-width="1.06068" stroke-miterlimit="10"/>
<path d="M6068.06 4664.29H5583.85V5046.7H6068.06V4664.29Z" fill="#263238" stroke="#263238" stroke-width="1.06068" stroke-miterlimit="10"/>
<path d="M6740.5 4759.89H6256.29V5046.7H6740.5V4759.89Z" fill="#263238" stroke="#263238" stroke-width="1.06068" stroke-miterlimit="10"/>
<path d="M7413.19 3976H6928.98V5046.46H7413.19V3976Z" fill="#263238" stroke="#263238" stroke-width="1.06068" stroke-miterlimit="10"/>
<path d="M8085.63 4167.21H7601.42V5046.45H8085.63V4167.21Z" fill="#263238" stroke="#263238" stroke-width="1.06068" stroke-miterlimit="10"/>
<path d="M8758.07 4454.01H8273.86V5046.46H8758.07V4454.01Z" fill="#263238" stroke="#263238" stroke-width="1.06068" stroke-miterlimit="10"/>
<path d="M9748.52 2214.53C9742.7 2214.57 9736.96 2213.17 9731.82 2210.44C9726.67 2207.72 9722.29 2203.76 9719.05 2198.93L8677.32 679.684L7620.49 1806.61L6541.37 1103.21L5497.42 1345.44L4437.12 2206.61C4429.76 2212.58 4420.33 2215.39 4410.9 2214.42C4401.47 2213.44 4392.81 2208.76 4386.84 2201.4C4380.86 2194.05 4378.05 2184.62 4379.03 2175.19C4380 2165.76 4384.68 2157.1 4392.04 2151.13L5465.22 1279.55L6554.99 1026.68L7609.59 1714.23L8686.24 566.001L9778 2158.56C9781.7 2163.9 9783.87 2170.16 9784.27 2176.64C9784.68 2183.13 9783.3 2189.61 9780.29 2195.37C9777.28 2201.14 9772.76 2205.97 9767.2 2209.34C9761.64 2212.72 9755.27 2214.51 9748.77 2214.53H9748.52Z" fill="#263238"/>
<path d="M4504.24 2178.87C4504.24 2196.35 4499.05 2213.45 4489.33 2227.99C4479.62 2242.53 4465.81 2253.86 4449.65 2260.56C4433.5 2267.25 4415.72 2269 4398.57 2265.59C4381.41 2262.18 4365.66 2253.75 4353.29 2241.39C4340.93 2229.02 4332.51 2213.27 4329.09 2196.12C4325.68 2178.96 4327.43 2161.19 4334.13 2145.03C4340.82 2128.87 4352.15 2115.06 4366.69 2105.35C4381.23 2095.63 4398.33 2090.45 4415.82 2090.45C4439.27 2090.45 4461.76 2099.76 4478.34 2116.34C4494.92 2132.92 4504.24 2155.42 4504.24 2178.87Z" fill="#2040F9"/>
<path d="M5481.32 1400.92C5530.15 1400.92 5569.74 1361.33 5569.74 1312.5C5569.74 1263.66 5530.15 1224.08 5481.32 1224.08C5432.48 1224.08 5392.9 1263.66 5392.9 1312.5C5392.9 1361.33 5432.48 1400.92 5481.32 1400.92Z" fill="#2040F9"/>
<path d="M6548.05 1153.24C6596.89 1153.24 6636.48 1113.65 6636.48 1064.82C6636.48 1015.99 6596.89 976.399 6548.05 976.399C6499.22 976.399 6459.64 1015.99 6459.64 1064.82C6459.64 1113.65 6499.22 1153.24 6548.05 1153.24Z" fill="#2040F9"/>
<path d="M7614.79 1848.71C7663.63 1848.71 7703.22 1809.13 7703.22 1760.29C7703.22 1711.46 7663.63 1671.87 7614.79 1671.87C7565.96 1671.87 7526.37 1711.46 7526.37 1760.29C7526.37 1809.13 7565.96 1848.71 7614.79 1848.71Z" fill="#2040F9"/>
<path d="M8769.95 622.966C8769.95 640.454 8764.77 657.549 8755.05 672.09C8745.34 686.631 8731.53 697.964 8715.37 704.656C8699.21 711.348 8681.44 713.099 8664.28 709.687C8647.13 706.276 8631.38 697.855 8619.01 685.489C8606.65 673.123 8598.22 657.368 8594.81 640.216C8591.4 623.064 8593.15 605.286 8599.84 589.129C8606.54 572.972 8617.87 559.163 8632.41 549.447C8646.95 539.732 8664.05 534.546 8681.53 534.546C8704.98 534.546 8727.47 543.862 8744.06 560.444C8760.64 577.026 8769.95 599.516 8769.95 622.966Z" fill="#2040F9"/>
<path d="M9836.69 2178.87C9836.69 2196.35 9831.51 2213.45 9821.79 2227.99C9812.08 2242.53 9798.27 2253.86 9782.11 2260.56C9765.95 2267.25 9748.18 2269 9731.02 2265.59C9713.87 2262.18 9698.12 2253.75 9685.75 2241.39C9673.39 2229.02 9664.96 2213.27 9661.55 2196.12C9658.14 2178.96 9659.89 2161.19 9666.58 2145.03C9673.28 2128.87 9684.61 2115.06 9699.15 2105.35C9713.69 2095.63 9730.79 2090.45 9748.27 2090.45C9771.72 2090.45 9794.21 2099.76 9810.8 2116.34C9827.38 2132.92 9836.69 2155.42 9836.69 2178.87Z" fill="#2040F9"/>
<path d="M11655.1 10606.3C12599.2 10606.3 13364.6 10503.5 13364.6 10376.7C13364.6 10249.9 12599.2 10147.1 11655.1 10147.1C10711 10147.1 9945.67 10249.9 9945.67 10376.7C9945.67 10503.5 10711 10606.3 11655.1 10606.3Z" fill="#2040F9"/>
<path opacity="0.7" d="M11655.1 10606.3C12599.2 10606.3 13364.6 10503.5 13364.6 10376.7C13364.6 10249.9 12599.2 10147.1 11655.1 10147.1C10711 10147.1 9945.67 10249.9 9945.67 10376.7C9945.67 10503.5 10711 10606.3 11655.1 10606.3Z" fill="white"/>
<path d="M2289.52 10606.3C3160.72 10606.3 3866.97 10503.5 3866.97 10376.7C3866.97 10249.9 3160.72 10147.1 2289.52 10147.1C1418.32 10147.1 712.072 10249.9 712.072 10376.7C712.072 10503.5 1418.32 10606.3 2289.52 10606.3Z" fill="#2040F9"/>
<path opacity="0.7" d="M2289.52 10606.3C3160.72 10606.3 3866.97 10503.5 3866.97 10376.7C3866.97 10249.9 3160.72 10147.1 2289.52 10147.1C1418.32 10147.1 712.072 10249.9 712.072 10376.7C712.072 10503.5 1418.32 10606.3 2289.52 10606.3Z" fill="white"/>
<path d="M11172.7 2288.34C11172.7 2288.34 11822.1 2225.43 11859.2 2333.66C11896.4 2441.9 11884 2689.08 11884 2689.08C11916.7 2697.58 11948.6 2708.94 11979.3 2723.01C11988 2731.43 12084.1 2794.34 11994.4 2897.62C11971 2923.81 11942.7 2945.11 11911 2960.28C11871.4 2977.78 11833.8 2999.37 11798.8 3024.68L11668.5 3172.54L11693.3 3363C11693.3 3363 11751.5 3405.11 11822.6 3551.98C11822.6 3551.98 11990.5 3651.05 12089.1 3707.27C12170.1 3749.86 12254.4 3785.97 12341.2 3815.26C12341.2 3815.26 12386.3 3829.87 12383 3862.32C12379.8 3894.76 12158.7 4630.11 12158.7 4630.11L12042.2 5001.63C12040 5047.28 12034.1 5092.68 12024.4 5137.35C12007.8 5217.35 11945.4 5269.86 11880.8 5253.51L11887.2 5525.96C11887.2 5525.96 11583.5 5677.78 11082.7 5652.02C11082.7 5652.02 10847 5629.24 10672.6 5500.2L10669.4 4863.67L9865.92 4708.13C9865.92 4708.13 9764.12 4686.58 9816.38 4594.94C9868.64 4503.3 10044.2 4275.94 10044.2 4275.94L10608.7 3585.42C10608.7 3585.42 10647.6 3539.6 10661.9 3524.98C10676.3 3510.37 10711.5 3500.21 10850.9 3488.57C10990.4 3476.93 11146.7 3449.94 11146.7 3449.94C11146.7 3449.94 11231.4 3377.12 11243.5 3377.12C11255.6 3377.12 11258.1 3268.14 11258.1 3268.14C11215.3 3237.23 11179.6 3197.4 11153.7 3151.39C11127.7 3105.38 11112.1 3054.29 11107.8 3001.64C11095.6 2824.8 11173.2 2410.44 11173.2 2410.44L11172.7 2288.34Z" fill="white"/>
<path d="M10682.5 5497.72C10682.5 5497.72 10614.1 6513.19 10614.1 6999.13C10614.1 7485.07 10644.6 7878.63 10659.7 8219.92C10674.8 8561.22 10614.1 8796.27 10667.1 9046.42C10720.2 9296.57 10841.8 10024.7 10841.8 10024.7L10984.7 10110.9C10984.7 10110.9 11009.4 9531.62 11061.4 9327.04C11113.5 9122.45 11129.8 8257.82 11160.5 7992.31C11191.2 7726.8 11289.6 6786.63 11289.6 6786.63C11289.6 6786.63 11668.8 7772.37 11760.1 8159.24C11851.5 8546.11 12162.1 9417.93 12230.7 9630.19C12299.3 9842.45 12405.1 10157 12405.1 10157C12437.2 10166.4 12471 10168.9 12504.2 10164.4C12518.5 10163.3 12532.3 10158.5 12544.3 10150.5C12556.2 10142.5 12565.9 10131.6 12572.5 10118.9C12572.5 10118.9 12471.7 9483.81 12427.4 9175.21C12372.6 8793.54 12283.5 8219.92 12229.2 8007.67C12175 7795.41 12092.8 7461.54 12092.8 7302.29C12092.8 7143.03 11888.2 5543.79 11888.2 5543.79C11888.2 5543.79 11175.4 5854.13 10682.5 5497.72Z" fill="#263238"/>
<path d="M11289.1 6786.62L10984.9 6431.95" stroke="white" stroke-width="0.530341" stroke-miterlimit="10" stroke-linecap="round"/>
<path d="M10907.1 6457.96L11157.5 6691.02" stroke="white" stroke-width="0.530341" stroke-miterlimit="10" stroke-linecap="round"/>
<path d="M11442.4 6483.97C11506.5 6321.74 11625.6 6187.24 11779 6104.03" stroke="white" stroke-width="0.530341" stroke-miterlimit="10" stroke-linecap="round"/>
<path d="M11796.1 5629.48C11796.1 5629.48 11761.6 5758.77 11804.7 5836.54C11847.8 5914.31 11891.2 5914.31 11891.2 5914.31C11891.2 5914.31 11968.7 6337.09 11968.7 6578.83C11968.7 6820.56 11916.9 6846.32 11968.7 7113.8C12020.5 7381.29 12055.1 7467.73 12055.1 7623.03C12055.1 7778.32 12124 7882.1 12184.4 7976.96C12244.8 8071.81 12262.2 8348.47 12262.2 8460.17C12262.2 8571.87 12296.6 8693.23 12331.3 8805.43C12331.3 8805.43 12339.5 9057.07 12383 9116.02C12426.6 9174.96 12434.8 9375.08 12434.8 9375.08" stroke="white" stroke-width="0.530341" stroke-miterlimit="10" stroke-linecap="round"/>
<path d="M11226.6 6751.46C11226.6 6751.46 11243.7 6949.6 11183.3 7295.1C11122.9 7640.61 11079.8 7735.22 11071.1 8132.25C11062.4 8529.27 11097.1 8598.37 11079.8 8805.43C11062.4 9012.49 10958.9 9339.67 10958.9 9488.27C10958.9 9636.88 10974.8 10111.9 10974.8 10111.9" stroke="white" stroke-width="0.530341" stroke-miterlimit="10" stroke-linecap="round"/>
<path d="M11036.7 5681.25L11054 5750.35L11166.2 5776.11L11148.9 5689.92" stroke="white" stroke-width="0.530341" stroke-miterlimit="10" stroke-linecap="round"/>
<path d="M11166.7 5776.11C11166.7 5776.11 11373.8 5767.44 11477.3 5733.01L11452.5 5663.91" stroke="white" stroke-width="0.530341" stroke-miterlimit="10" stroke-linecap="round"/>
<path d="M11545.9 5646.57L11570.7 5733.01C11570.7 5733.01 11736.4 5723.6 11761.1 5698.83" stroke="white" stroke-width="0.530341" stroke-miterlimit="10" stroke-linecap="round"/>
<path d="M11054 5750.35C10996.8 5748.55 10940.7 5733.73 10890.1 5707.01L10812.3 5663.91L10837.1 5603.48" stroke="white" stroke-width="0.530341" stroke-miterlimit="10" stroke-linecap="round"/>
<path d="M10841.8 10024.7C10841.8 10024.7 10470.2 10267.2 10417 10380.9C10363.7 10494.6 10576.3 10449.3 10727.8 10388.6C10879.4 10327.9 10975.5 10110.9 10975.5 10110.9L10841.8 10024.7Z" fill="white" stroke="#263238" stroke-width="1.06068" stroke-miterlimit="10" stroke-linecap="round"/>
<path d="M12417 10160.2C12435.7 10264.1 12472.6 10363.9 12526 10455C12607.7 10582 12762 10691 12762 10491.1C12762 10291.2 12571.5 10119.6 12571.5 10119.6C12571.5 10119.6 12476.9 10170.9 12417 10160.2Z" fill="white" stroke="#263238" stroke-width="1.06068" stroke-miterlimit="10" stroke-linecap="round"/>
<path d="M11170.4 2425.55C11170.4 2425.55 11089.9 2924.87 11117.2 3048.7C11179.3 3325.85 11397.5 3313.96 11534 3260.96C11661.6 3211.43 11788.9 3036.32 11805.2 3013.29C11806.4 3011.66 11808 3010.44 11809.9 3009.82C11830.2 3004.12 11956.3 2964 12011.8 2866.66C12072.5 2760.41 11958.8 2715.08 11958.8 2715.08" fill="white"/>
<mask id="mask0_40_1388" style="mask-type:luminance" maskUnits="userSpaceOnUse" x="11111" y="2425" width="919" height="867">
<path d="M11170.4 2425.55C11170.4 2425.55 11089.9 2924.87 11117.2 3048.7C11179.3 3325.85 11397.5 3313.96 11534 3260.96C11661.6 3211.43 11788.9 3036.32 11805.2 3013.29C11806.4 3011.66 11808 3010.44 11809.9 3009.82C11830.2 3004.12 11956.3 2964 12011.8 2866.66C12072.5 2760.41 11958.8 2715.08 11958.8 2715.08" fill="white"/>
</mask>
<g mask="url(#mask0_40_1388)">
<g style="mix-blend-mode:multiply" opacity="0.5">
<path d="M11686.8 3141.83L11807.2 3009.57C11807.2 3009.57 11949.6 2965.73 12011.8 2865.42C12048.2 2806.72 12028.1 2755.46 12006.1 2741.59C11975.9 2725.23 11944.7 2710.76 11912.7 2698.24L11872.3 2787.16L11837.9 2793.1C11837.9 2793.1 11852.3 2701.46 11810.7 2647.22C11769.1 2592.98 11759.6 2435.95 11759.6 2435.95C11759.6 2435.95 11701.4 2749.02 11694.3 2880.04C11692.4 2952.95 11669.6 3023.8 11628.6 3084.12C11628.6 3084.12 11636.1 3164.12 11650.4 3244.12C11652.2 3253.53 11653.9 3267.65 11655.6 3285.23L11675.4 3253.53L11686.3 3283.75C11674 3231.74 11668.3 3176.5 11686.8 3141.83Z" fill="#2040F9"/>
</g>
</g>
<path d="M11170.4 2425.55C11170.4 2425.55 11089.9 2924.87 11117.2 3048.7C11179.3 3325.85 11397.5 3313.96 11534 3260.96C11661.6 3211.43 11788.9 3036.32 11805.2 3013.29C11806.4 3011.66 11808 3010.44 11809.9 3009.82C11830.2 3004.12 11956.3 2964 12011.8 2866.66C12072.5 2760.41 11958.8 2715.08 11958.8 2715.08" stroke="#263238" stroke-width="1.06068" stroke-miterlimit="10" stroke-linecap="round"/>
<path d="M11478.5 2679.42C11473.8 2699.23 11478.5 2717.06 11487.7 2719.29C11496.9 2721.52 11509.2 2707.65 11514 2688.09C11518.7 2668.52 11514 2650.69 11504.8 2648.21C11495.6 2645.73 11483.2 2659.85 11478.5 2679.42Z" fill="#263238"/>
<path d="M11265.8 2627.65C11261.1 2647.47 11265.8 2665.3 11274.9 2667.53C11284.1 2669.76 11296.5 2655.89 11301.2 2636.32C11305.9 2616.76 11301.2 2598.68 11292 2596.45C11282.9 2594.22 11270.2 2607.84 11265.8 2627.65Z" fill="#263238"/>
<path d="M11610.5 2592.73C11598.8 2572.14 11582.2 2554.8 11562.1 2542.3C11541.9 2529.8 11519 2522.53 11495.4 2521.15" stroke="#263238" stroke-width="1.06068" stroke-miterlimit="10" stroke-linecap="round"/>
<path d="M11332.4 2524.87C11312.9 2516.35 11291.3 2513.96 11270.4 2518.03C11249.5 2522.1 11230.4 2532.44 11215.5 2547.65" stroke="#263238" stroke-width="1.06068" stroke-miterlimit="10" stroke-linecap="round"/>
<path d="M11346.8 2615.02C11347.2 2648.2 11344.7 2681.35 11339.3 2714.09C11331.2 2755.45 11299 2763.63 11307.1 2795.58C11315.3 2827.53 11356.7 2830.75 11356.7 2830.75" stroke="#263238" stroke-width="1.06068" stroke-miterlimit="10" stroke-linecap="round"/>
<path d="M11399.8 2959.79C11417.3 2965.37 11435.8 2967.09 11454.1 2964.82C11472.4 2962.56 11489.9 2956.36 11505.5 2946.66" stroke="#263238" stroke-width="1.06068" stroke-miterlimit="10" stroke-linecap="round"/>
<path d="M11792.1 2076.82C11792.1 2076.82 11625.4 1932.68 11466.2 1932.68C11306.9 1932.68 11177.9 2023.82 11079.3 2031.75C10980.7 2039.67 10912.6 1948.28 10851.9 2069.64C10791.2 2191 11018.9 2395.83 11170.4 2426.05C11322 2456.26 11534.3 2410.94 11594.9 2403.26C11653.1 2399.27 11711.4 2399.27 11769.6 2403.26C11769.6 2403.26 11724 2547.41 11769.6 2592.98C11815.1 2638.55 11822.6 2668.77 11822.6 2698.98C11825.2 2732.33 11830.2 2765.45 11837.7 2798.05L11883.2 2813.41L11906 2729.94C11967.5 2664.38 12009.5 2582.99 12027.4 2494.9C12049.9 2358.43 11936.2 2222.46 11936.2 2222.46L11792.1 2076.82Z" fill="#263238"/>
<path d="M11153.6 2363.88C11153.6 2363.88 11412.9 2413.41 11616 2328.96C11819.1 2244.5 11644 2076.82 11644 2076.82" stroke="white" stroke-width="0.530341" stroke-miterlimit="10" stroke-linecap="round"/>
<path d="M11686.8 2062.71C11707.9 2062.71 11883 2195.71 11847.8 2293.79C11812.6 2391.87 11742.8 2399.05 11742.8 2399.05" stroke="white" stroke-width="0.530341" stroke-miterlimit="10" stroke-linecap="round"/>
<path d="M11658.1 5071.22L11439.2 4955.81C11382.9 4952.69 11326.9 4945.41 11271.7 4934.01C11220.7 4919.4 10697.1 4869.37 10697.1 4869.37L10689.2 4993.21C10689.2 4993.21 11286.3 5073.45 11409.9 5088.06C11533.5 5102.68 11643 5160.88 11664.8 5197.29C11686.6 5233.7 11730.4 5270.11 11708.6 5370.66C11686.8 5471.22 11541.2 5618.34 11541.2 5618.34C11534.3 5607.94 11891.4 5582.18 11887.9 5544.04C11880.3 5468.25 11839.9 5246.83 11839.9 5246.83L11658.1 5071.22Z" fill="#2040F9"/>
<path opacity="0.5" d="M11658.1 5071.22L11439.2 4955.81C11382.9 4952.69 11326.9 4945.41 11271.7 4934.01C11220.7 4919.4 10697.1 4869.37 10697.1 4869.37L10689.2 4993.21C10689.2 4993.21 11286.3 5073.45 11409.9 5088.06C11533.5 5102.68 11643 5160.88 11664.8 5197.29C11686.6 5233.7 11730.4 5270.11 11708.6 5370.66C11686.8 5471.22 11541.2 5618.34 11541.2 5618.34C11535.5 5607.19 11892.2 5581.93 11887.9 5544.04C11876.3 5447.44 11839.9 5246.83 11839.9 5246.83L11658.1 5071.22Z" fill="white"/>
<path d="M12380.3 3859.59C12361 3768.94 12216.9 3781.08 12129.9 3730.8C12043 3680.52 11832.7 3564.12 11832.7 3564.12L11730.9 3411.05C11712.5 3369.79 11697.7 3327.03 11686.6 3283.25L11675.7 3253.04L11655.9 3284.74C11668.5 3420.46 11680.6 3767.95 11680.6 3767.95L11724.2 3986.4C11724.2 3986.4 11891.9 4707.14 11935.5 4867.39C11979.1 5027.63 11979.1 5136.61 11950.1 5187.63C11921.1 5238.65 11930.8 5261.93 11930.8 5261.93C11930.8 5261.93 12044.5 5174.01 12037.5 5086.83C12028.4 4984.29 12393.9 3921.02 12380.3 3859.59Z" fill="#2040F9"/>
<path opacity="0.5" d="M12380.3 3859.59C12370.4 3767.46 12216.9 3781.08 12129.9 3730.8C12043 3680.52 11832.7 3564.12 11832.7 3564.12L11730.9 3411.05C11712.5 3369.79 11697.7 3327.03 11686.6 3283.25L11675.7 3253.04L11655.9 3284.74C11668.5 3420.46 11680.6 3767.95 11680.6 3767.95L11724.2 3986.4C11724.2 3986.4 11891.9 4707.14 11935.5 4867.39C11979.1 5027.63 11979.1 5136.61 11950.1 5187.63C11921.1 5238.65 11930.8 5261.93 11930.8 5261.93C11930.8 5261.93 12047.7 5173.76 12037.5 5086.83C12025.9 4993.45 12389.2 3936.13 12380.3 3859.59Z" fill="white"/>
<path d="M11744 3768.7C11744 3768.7 11698.5 3359.29 11675.7 3253.04C11652.9 3146.78 11668.3 3086.35 11569.7 3086.35C11471.1 3086.35 11349.7 3070.99 11371.5 3124.24C11393.3 3177.49 11544.9 3131.67 11569.7 3154.46C11594.4 3177.25 11577.1 3230.25 11577.1 3230.25C11577.1 3230.25 11379 3245.6 11379 3298.61C11379 3351.61 11386.6 3496.75 11424.5 3510.87C11462.4 3524.98 11477.5 3442.75 11477.5 3442.75C11477.5 3442.75 11485.2 3616.13 11523.1 3677.8C11547.3 3715.89 11575.2 3751.41 11606.6 3783.8L11744 3768.7Z" fill="white" stroke="#263238" stroke-width="1.06068" stroke-miterlimit="10" stroke-linecap="round"/>
<path d="M11607.6 3882.38C11607.6 3882.38 11584.8 4823.55 11622.7 4974.38C11660.6 5125.22 11865.4 5330.79 11971.4 5232.21C12077.4 5133.64 12024.7 4921.38 12024.7 4822.8C12024.7 4724.23 11781.9 3996.31 11781.9 3943.06C11778.3 3898.84 11768.1 3855.42 11751.5 3814.27" stroke="#263238" stroke-width="1.06068" stroke-miterlimit="10" stroke-linecap="round"/>
<path d="M11622.7 3996.31L11774.3 3980.95" stroke="#263238" stroke-width="1.06068" stroke-miterlimit="10" stroke-linecap="round"/>
<path d="M10653.3 4466.89L10682.5 3629.5C10682.5 3629.5 10646.1 3607.71 10631.5 3687.71C10616.9 3767.71 10609.7 3928.2 10609.7 3928.2C10609.7 3928.2 10434.8 3818.97 10478.7 3884.36C10522.5 3949.75 10595.1 4095.63 10595.1 4095.63L10324.6 4364.85L10448.5 4415.87L10653.3 4466.89Z" fill="#2040F9"/>
<path opacity="0.5" d="M10653.3 4466.89L10682.5 3629.5C10682.5 3629.5 10646.1 3607.71 10631.5 3687.71C10616.9 3767.71 10609.7 3928.2 10609.7 3928.2C10609.7 3928.2 10434.8 3818.97 10478.7 3884.36C10522.5 3949.75 10595.1 4095.63 10595.1 4095.63L10324.6 4364.85L10448.5 4415.87L10653.3 4466.89Z" fill="white"/>
<path d="M11015.9 3816.5C11015.9 3816.5 11002 3866.03 11060.2 3866.03C11118.4 3866.03 11220.7 3824.67 11220.7 3824.67L11213.3 3742.44C11213.3 3742.44 11073.3 3810.55 11015.9 3816.5Z" fill="#2040F9"/>
<path opacity="0.5" d="M11015.9 3816.5C11015.9 3816.5 11002 3866.03 11060.2 3866.03C11118.4 3866.03 11220.7 3824.67 11220.7 3824.67L11213.3 3742.44C11213.3 3742.44 11073.3 3810.55 11015.9 3816.5Z" fill="white"/>
<path d="M11265.8 3262.69C11265.8 3262.69 11190 3708.51 11235.6 3807.58C11281.1 3906.65 11349.2 3883.37 11402.3 3838.05C11455.3 3792.72 11523.6 3678.79 11523.6 3678.79" stroke="#263238" stroke-width="1.06068" stroke-miterlimit="10" stroke-linecap="round"/>
<path d="M10667.1 4875.81L10682.5 5497.72C10682.5 5497.72 10855.9 5664.41 11190.5 5664.41C11525.1 5664.41 11888.2 5543.04 11888.2 5543.04V5323.11" stroke="#263238" stroke-width="1.06068" stroke-miterlimit="10" stroke-linecap="round"/>
<path d="M11691 3351.61C11691 3351.61 11827.5 3488.08 11827.5 3617.12C11827.5 3746.16 11804.7 3776.37 11804.7 3776.37" stroke="#263238" stroke-width="1.06068" stroke-miterlimit="10" stroke-linecap="round"/>
<path d="M11812.2 3541.33C11812.2 3541.33 12017 3662.44 12130.7 3730.8C12244.3 3799.16 12381.1 3798.91 12381.1 3859.59C12381.1 3920.27 12062.6 4951.6 12062.6 4951.6" stroke="#263238" stroke-width="1.06068" stroke-miterlimit="10" stroke-linecap="round"/>
<path d="M11941.2 3882.38L11865.4 4185.78" stroke="#263238" stroke-width="1.06068" stroke-miterlimit="10" stroke-linecap="round"/>
<path d="M10669.1 4060.46L10546.5 3803.37" stroke="#263238" stroke-width="0.530341" stroke-miterlimit="10" stroke-linecap="round"/>
<path d="M10669.1 4134.02L10485.4 4023.8" stroke="#263238" stroke-width="0.530341" stroke-miterlimit="10" stroke-linecap="round"/>
<path d="M11268.8 4709.12L11232.1 4892.9" stroke="#263238" stroke-width="0.530341" stroke-miterlimit="10" stroke-linecap="round"/>
<path d="M12260.2 3852.41C12260.2 3852.41 12076.7 3889.07 11905.3 4097.11" stroke="#263238" stroke-width="0.530341" stroke-miterlimit="10" stroke-linecap="round"/>
<path d="M12137.8 3841.27C12137.8 3841.27 12088.3 3828.88 11917.7 3975.75" stroke="#263238" stroke-width="0.530341" stroke-miterlimit="10" stroke-linecap="round"/>
<path d="M11268.8 3901.45L11195.4 4476.55L11256.6 4488.94L11305.7 4305.41" stroke="#263238" stroke-width="0.530341" stroke-miterlimit="10" stroke-linecap="round"/>
<path d="M11317.8 5406.82C11097.4 5590.6 10791.5 5578.22 10791.5 5578.22" stroke="#263238" stroke-width="0.530341" stroke-miterlimit="10" stroke-linecap="round"/>
<path d="M10386.3 4407.95C10386.3 4407.95 10236.4 4270.73 10024.2 4445.35" stroke="#263238" stroke-width="0.530341" stroke-miterlimit="10" stroke-linecap="round"/>
<path d="M11251.2 3374.4C11251.2 3374.4 11190.5 3389.5 11122.1 3495.76C11053.8 3602.01 10970.6 3783.8 11031.2 3798.91C11091.9 3814.02 11204.6 3745.91 11204.6 3745.91" stroke="#263238" stroke-width="1.06068" stroke-miterlimit="10" stroke-linecap="round"/>
<path d="M11486.2 3776.37L11562 3844.48" stroke="#263238" stroke-width="1.06068" stroke-miterlimit="10" stroke-linecap="round"/>
<path d="M11144.9 3450.19C11144.9 3450.19 10864.3 3488.08 10750.6 3495.76C10636.9 3503.44 10659 3545.29 10621.8 3571.55C10561.9 3613.4 9874.34 4484.97 9829.26 4568.44C9784.19 4651.91 9791.37 4689.8 9867.16 4712.59C9942.95 4735.37 10697.9 4868.13 10697.9 4868.13L11364.9 4936.49L11417.9 4769.55C11417.9 4769.55 11572.9 4790.11 11600.1 4790.11" stroke="#263238" stroke-width="1.06068" stroke-miterlimit="10" stroke-linecap="round"/>
<path d="M11342.1 4708.13C11194.9 4665.43 11052.6 4607.31 10917.6 4534.76" stroke="#263238" stroke-width="1.06068" stroke-miterlimit="10" stroke-linecap="round"/>
<path d="M10856.9 4519.4C10856.9 4519.4 10634 4436.68 10513.3 4421.57C10392.7 4406.46 10208 4401.51 10208 4401.51" stroke="#263238" stroke-width="1.06068" stroke-miterlimit="10" stroke-linecap="round"/>
<path d="M10652 4420.83L10674.8 3821.7" stroke="#263238" stroke-width="1.06068" stroke-miterlimit="10" stroke-linecap="round"/>
<path d="M11364.9 4936.49C11416.9 4962.65 11471.4 4983.56 11527.6 4998.9" stroke="#263238" stroke-width="1.06068" stroke-miterlimit="10" stroke-linecap="round"/>
<path d="M1441.23 4453.77L1530.64 3965.1L2096.58 3742.19C2096.58 3742.19 2124.07 3590.37 2151.81 3583.68C2179.55 3576.99 2206.79 3514.58 2206.79 3514.58L2193.17 3389.5C2193.17 3389.5 2244.94 3191.36 2505.24 3345.67C2505.24 3345.67 2426.48 3398.17 2440.11 3419.97C2453.73 3441.76 2425 3511.11 2459.42 3511.11C2493.85 3511.11 2563.45 3554.95 2598.62 3590.37C2623.23 3616.81 2644.98 3645.79 2663.51 3676.81L2956.51 3693.65C2986.54 3693.9 3016.42 3697.98 3045.42 3705.79C3050.38 3562.63 3032.79 3453.4 2998.12 3368.45C2872.05 3061.83 2642.21 2952.36 2609.27 2798.8C2576.33 2645.24 2592.92 2629.14 2592.92 2629.14C2626.42 2595.08 2650.94 2553.25 2664.3 2507.39C2677.65 2461.53 2679.42 2413.07 2669.45 2366.36C2636.76 2202.15 2510.69 2086.98 2056.21 2065.18C1601.72 2043.39 1667.6 2355.21 1667.6 2355.21L1673.05 2377.01C1673.05 2377.01 1382.78 2476.08 1437.76 2842.39C1492.75 3208.7 1651.26 3367.96 1645.81 3482.88C1640.36 3597.8 1470.45 3641.64 1229.47 3903.93C988.478 4166.22 939.438 4560.76 1038.01 4818.1C1087.55 4944.66 1184.39 5050.17 1306 5128.93L1441.23 4453.77Z" fill="#263238"/>
<path d="M1820.67 4502.06V4612.53L1610.89 5260.69C1741.97 5295.38 1879.45 5298.27 2011.87 5269.11C2086.63 5249.63 2158.07 5219.17 2223.88 5178.71L1820.67 4502.06Z" fill="#263238"/>
<path d="M2423.76 3416L2448.53 3527.46C2448.53 3527.46 2522.83 3453.16 2667.97 3678.79C2667.97 3678.79 2969.64 3671.61 3051.86 3712.72C3051.86 3712.72 3068.95 3717.67 3124.68 3776.87C3180.41 3836.06 3389.94 4024.54 3389.94 4024.54C3389.94 4024.54 3658.92 4274.2 3685.67 4293.52C3712.42 4312.84 3812.72 4408.69 3887.77 4442.13L4088.88 3984.17L4178.54 3757.55L4228.08 3571.05H4243.93L4247.4 3420.71L4235.26 3241.39C4237.23 3232.27 4241.4 3223.77 4247.4 3216.63C4268.16 3187.84 4284.14 3155.9 4294.7 3122.01C4294.7 3105.17 4277.61 3005.61 4277.61 3005.61C4277.61 3005.61 4269.19 2980.84 4287.52 2977.87C4305.85 2974.89 4373.46 2998.42 4381.88 3045.73L4406.65 3037.31C4427.16 2988.3 4452.73 2941.57 4482.93 2897.87C4523.06 2845.86 4564.17 2813.16 4589.68 2830C4596.68 2834.83 4601.73 2842 4603.91 2850.22C4606.09 2858.44 4605.26 2867.17 4601.57 2874.83L4521.82 3021.46C4521.82 3021.46 4486.65 3068.76 4530.24 3085.61C4530.24 3085.61 4624.61 3146.29 4630.8 3199.54C4636.99 3252.79 4602.81 3298.61 4572.59 3337.74C4542.38 3376.87 4489.13 3461.58 4489.13 3461.58L4427.21 3516.31L4402.44 3610.68L4431.67 3647.09L4388.08 3836.06L4356.62 3977.73L4340.77 4063.68L4241.7 4402.99L4142.63 4698.72C4142.63 4698.72 4091.61 4868.13 3968.02 4863.42C3844.43 4858.72 3708.95 4791.84 3665.11 4770.05C3621.27 4748.25 3259.91 4559.52 3259.91 4559.52L3185.61 4524.35C3195.53 4558.18 3199.79 4593.41 3198.24 4628.63C3197 4694.01 3126.66 4838.16 3106.11 4870.85L3093.97 5126.45C3089.17 5170.8 3090 5215.57 3096.45 5259.7C3107.34 5326.33 3163.07 5703.29 3175.21 5750.35C3175.21 5750.35 3054.84 5859.33 2696.2 5911.09C2337.57 5962.85 2169.64 5878.89 2169.64 5878.89L2009.89 5785.02L2206.79 5395.92C2206.79 5395.92 2256.33 5280.26 2251.38 5249.8C2246.42 5219.33 2161.72 5088.06 2161.72 5088.06L1850.88 4534.76L1836.27 4539.71L1787.98 4701.19L1613.36 5248.81L1383.52 5932.39C1383.52 5932.39 1320.61 6105.76 1294.61 6157.03L1222.04 6378.21C1226.07 6417.72 1235.83 6456.43 1251.01 6493.13L1068.48 6374.99L1100.92 6201.61L1141.29 5943.04L1190.83 5661.93L1234.42 5429.36L1304.02 5119.27L1328.78 5033.58L1378.32 4791.35L1465.5 4351.97L1539.8 3975.75L2059.92 3768.94L2092.37 3744.18C2099.58 3696.29 2117.16 3650.56 2143.89 3610.18C2162.43 3583.62 2184.51 3559.7 2209.52 3539.1C2209.52 3539.1 2207.04 3506.65 2205.31 3475.94C2203.57 3445.23 2195.65 3388.76 2195.65 3388.76C2195.65 3388.76 2356.39 3457.86 2423.76 3416Z" fill="white"/>
<path d="M1727.05 2420.6C1727.05 2420.6 1823.39 2207.35 2016.08 2207.35C2208.78 2207.35 2607.78 2585.8 2607.78 2585.8" stroke="white" stroke-width="0.530341" stroke-miterlimit="10" stroke-linecap="round"/>
<path d="M1809.52 2454.28C1809.52 2454.28 1926.43 2330.44 2071.07 2378.49C2215.71 2426.54 2236.27 2598.67 2236.27 2598.67" stroke="white" stroke-width="0.530341" stroke-miterlimit="10" stroke-linecap="round"/>
<path d="M1713.18 2475.58C1713.18 2475.58 1541.29 2571.93 1527.42 2751C1513.55 2930.06 1768.16 3143.07 1802.59 3384.05C1837.01 3625.04 1658.19 3679.78 1369.16 3879.41C1080.12 4079.03 1128.41 4526.09 1190.33 4622.43" stroke="white" stroke-width="0.530341" stroke-miterlimit="10" stroke-linecap="round"/>
<path d="M1224.76 4677.67C1224.76 4677.67 1265.87 4767.08 1327.79 4794.57" stroke="white" stroke-width="0.530341" stroke-miterlimit="10" stroke-linecap="round"/>
<path d="M1733.98 2943.44C1725.84 2960.92 1722.19 2980.15 1723.36 2999.39C1724.53 3018.64 1730.48 3037.29 1740.67 3053.66C1775.1 3115.57 2037.88 3425.17 2016.08 3569.81C1994.29 3714.45 1857.82 3803.62 1857.82 3803.62" stroke="white" stroke-width="0.530341" stroke-miterlimit="10" stroke-linecap="round"/>
<path d="M1864.51 2475.58C1864.51 2475.58 1706.24 2544.43 1713.18 2702.7C1720.11 2860.96 1754.54 2902.33 1754.54 2902.33" stroke="white" stroke-width="0.530341" stroke-miterlimit="10" stroke-linecap="round"/>
<path d="M2607.78 2999.17C2656.96 3110.49 2724.43 3212.79 2807.41 3301.83C2931.25 3425.66 2944.87 3604.73 2944.87 3604.73" stroke="white" stroke-width="0.530341" stroke-miterlimit="10" stroke-linecap="round"/>
<path d="M2752.18 3390.74C2752.18 3390.74 2814.1 3535.38 2814.1 3624.8" stroke="white" stroke-width="0.530341" stroke-miterlimit="10" stroke-linecap="round"/>
<path d="M2409.64 3429.13L2215.22 3604.24C2215.22 3604.24 2194.41 3657.24 2155.28 3742.19C2116.15 3827.15 2122.58 3989.87 2122.58 3989.87L2242.46 4228.38C2242.46 4228.38 2011.87 3963.86 1998.75 3931.17C1985.62 3898.48 1744.38 3957.42 1698.81 3976.99C1653.24 3996.56 1594.29 4035.69 1607.42 4094.39C1620.55 4153.09 1679.25 4231.11 1652.99 4244.23C1626.74 4257.36 1555.16 4224.67 1555.16 4263.8C1555.16 4302.93 1640.11 4453.02 1600.98 4505.04C1561.85 4557.05 1313.92 5398.65 1313.92 5398.65C1313.92 5398.65 1470.45 5268.12 1431.32 5320.38C1392.19 5372.64 1203.21 5796.42 1203.21 5796.42L1131.39 6044.09L1301.04 5163.85L1444.45 4420.83L1530.64 3965.1C1613.86 3937.36 2096.58 3742.19 2096.58 3742.19C2096.58 3742.19 2134.72 3581.7 2206.79 3514.58L2193.17 3389.5C2193.17 3389.5 2324.69 3435.57 2409.64 3429.13Z" fill="#2040F9"/>
<path opacity="0.5" d="M2409.64 3429.13L2215.22 3604.24C2215.22 3604.24 2194.41 3657.24 2155.28 3742.19C2116.15 3827.15 2122.58 3989.87 2122.58 3989.87L2242.46 4228.38C2242.46 4228.38 2011.87 3963.86 1998.75 3931.17C1985.62 3898.48 1744.38 3957.42 1698.81 3976.99C1653.24 3996.56 1594.29 4035.69 1607.42 4094.39C1620.55 4153.09 1679.25 4231.11 1652.99 4244.23C1626.74 4257.36 1555.16 4224.67 1555.16 4263.8C1555.16 4302.93 1640.11 4453.02 1600.98 4505.04C1561.85 4557.05 1313.92 5398.65 1313.92 5398.65C1313.92 5398.65 1470.45 5268.12 1431.32 5320.38C1392.19 5372.64 1203.21 5796.42 1203.21 5796.42L1131.39 6044.09L1301.04 5163.85L1444.45 4420.83L1530.64 3965.1C1613.86 3937.36 2096.58 3742.19 2096.58 3742.19C2096.58 3742.19 2106.98 3593.59 2207.04 3541.58L2193.17 3389.5C2193.17 3389.5 2324.69 3435.57 2409.64 3429.13Z" fill="white"/>
<path d="M3133.35 4309.37C3133.35 4309.37 3250.75 4113.96 3263.88 4159.53C3277 4205.1 3231.18 4361.38 3231.18 4361.38C3231.18 4361.38 3355.02 4315.81 3342.14 4354.94C3329.26 4394.08 3303.01 4413.64 3309.45 4433.21C3315.89 4452.78 3739.91 4674.45 3792.17 4700.45C3844.43 4726.46 3968.27 4576.61 4026.96 4622.19C4085.66 4667.76 4026.96 4824.04 3909.57 4824.29C3792.17 4824.54 3453.1 4675.68 3453.1 4675.68L3186.11 4520.39" fill="#2040F9"/>
<path opacity="0.5" d="M3133.35 4309.37C3133.35 4309.37 3250.75 4113.96 3263.88 4159.53C3277 4205.1 3231.18 4361.38 3231.18 4361.38C3231.18 4361.38 3355.02 4315.81 3342.14 4354.94C3329.26 4394.08 3303.01 4413.64 3309.45 4433.21C3315.89 4452.78 3739.91 4674.45 3792.17 4700.45C3844.43 4726.46 3968.27 4576.61 4026.96 4622.19C4085.66 4667.76 4026.96 4824.04 3909.57 4824.29C3792.17 4824.54 3453.1 4675.68 3453.1 4675.68L3187.1 4520.89" fill="white"/>
<path d="M2429.21 5098.47C2429.21 5098.47 3191.55 4694.26 3067.72 4844.1C2943.88 4993.95 2533.48 5163.85 2429.21 5098.47Z" fill="#2040F9"/>
<path opacity="0.5" d="M2429.21 5098.47C2429.21 5098.47 3191.55 4694.26 3067.72 4844.1C2943.88 4993.95 2533.48 5163.85 2429.21 5098.47Z" fill="white"/>
<path d="M2193.17 3390.74C2193.17 3390.74 2198.62 3494.77 2215.22 3604.24C2231.81 3713.71 2226.11 3713.71 2330.14 3844.98C2434.16 3976.25 2543.63 4085.97 2559.98 4064.17" stroke="#263238" stroke-width="1.06068" stroke-miterlimit="10" stroke-linecap="round"/>
<path d="M2565.43 4025.78C2565.43 4025.78 2576.33 3834.08 2538.18 3708.26C2500.04 3582.44 2445.06 3538.36 2445.06 3510.12C2443.21 3480.7 2439.57 3451.42 2434.16 3422.44" stroke="#263238" stroke-width="1.06068" stroke-miterlimit="10" stroke-linecap="round"/>
<path d="M2193.17 3549.5C2149.42 3588.89 2118.82 3640.77 2105.5 3698.11C2089.15 3785.54 2072.8 3889.56 2072.8 3889.56L2242.46 4229.12C2257.23 4169.99 2279.28 4112.92 2308.09 4059.22C2322.37 4032.71 2340.85 4008.71 2362.83 3988.14" stroke="#263238" stroke-width="1.06068" stroke-miterlimit="10" stroke-linecap="round"/>
<path d="M2603.82 3932.66C2615.8 3929.66 2628.25 3929.08 2640.46 3930.95C2652.66 3932.82 2664.37 3937.1 2674.9 3943.55C2718.74 3965.6 2806.42 4080.52 2806.42 4080.52C2806.42 4080.52 2746.23 3795.69 2642.21 3648.08C2538.19 3500.46 2466.85 3511.11 2466.85 3511.11" stroke="#263238" stroke-width="1.06068" stroke-miterlimit="10" stroke-linecap="round"/>
<path d="M2056.21 3763L1530.64 3965.1C1530.64 3965.1 1339.19 5010.79 1267.86 5289.92C1196.53 5569.05 1076.4 6357.65 1076.4 6357.65L1218.57 6384.9L1268.1 6242.73" stroke="#263238" stroke-linecap="round" stroke-linejoin="round"/>
<path d="M1295.35 6161C1295.35 6161 1328.04 6111.46 1415.72 5839.02C1503.4 5566.57 1737.7 4897.85 1777.08 4765.84C1816.46 4633.83 1848.16 4546.89 1848.16 4546.89" stroke="#263238" stroke-width="1.06068" stroke-miterlimit="10" stroke-linecap="round"/>
<path d="M1755.03 4386.15C1755.03 4386.15 2198.37 5178.71 2236.76 5212.89C2275.15 5247.07 2220.42 5338.71 2209.27 5388" stroke="#263238" stroke-width="1.06068" stroke-miterlimit="10" stroke-linecap="round"/>
<path d="M2160.23 5487.57L2018.07 5783.29C2018.07 5783.29 2111.19 5925.7 2505.24 5925.7C2739.75 5926.42 2970.9 5869.97 3178.67 5761.25C3178.67 5761.25 3085.55 5268.62 3091 5180.94C3096.45 5093.27 3107.59 4863.42 3107.59 4863.42C3107.59 4863.42 3206.66 4714.82 3195.02 4600.64C3183.38 4486.46 3134.84 4354.2 3134.84 4332.41C3134.84 4310.61 3123.94 4075.07 3123.94 4075.07" stroke="#263238" stroke-width="1.06068" stroke-miterlimit="10" stroke-linecap="round"/>
<path d="M2504.5 5000.88L2896.82 4760.14" stroke="#263238" stroke-width="0.530341" stroke-miterlimit="10" stroke-linecap="round"/>
<path d="M2711.06 4925.34L2924.31 4801.5" stroke="#263238" stroke-width="0.530341" stroke-miterlimit="10" stroke-linecap="round"/>
<path d="M3885.05 4447.33L3805.05 4643.24" stroke="#263238" stroke-width="0.530341" stroke-miterlimit="10" stroke-linecap="round"/>
<path d="M3853.1 4533.02L3777.55 4608.81" stroke="#263238" stroke-width="0.530341" stroke-miterlimit="10" stroke-linecap="round"/>
<path d="M1616.83 5228.25C1616.83 5228.25 1486.06 5379.58 1396.65 5441.5" stroke="#263238" stroke-width="0.530341" stroke-miterlimit="10" stroke-linecap="round"/>
<path d="M1541.29 5269.36C1541.29 5269.36 1314.17 5448.18 1259.19 5489.55" stroke="#263238" stroke-width="0.530341" stroke-miterlimit="10" stroke-linecap="round"/>
<path d="M1581.66 3996.31C1650.13 4093.11 1712.18 4194.3 1767.42 4299.22" stroke="#263238" stroke-width="0.530341" stroke-miterlimit="10" stroke-linecap="round"/>
<path d="M1788.97 4347.27L1837.01 4429.74" stroke="#263238" stroke-width="0.530341" stroke-miterlimit="10" stroke-linecap="round"/>
<path d="M3134.84 4332.4L3195.02 4025.78" stroke="#263238" stroke-width="0.530341" stroke-miterlimit="10" stroke-linecap="round"/>
<path d="M3156.88 4354.2L3249.76 4222.93" stroke="#263238" stroke-width="0.530341" stroke-miterlimit="10" stroke-linecap="round"/>
<path d="M1848.16 4545.9L1585.38 4403.49" stroke="#263238" stroke-width="0.530341" stroke-miterlimit="10" stroke-linecap="round"/>
<path d="M2554.53 4091.42C2554.53 4091.42 2653.6 4289.56 2686.05 4430.98" stroke="#263238" stroke-width="0.530341" stroke-miterlimit="10" stroke-linecap="round"/>
<path d="M4180.52 3746.4C4206.73 3744.47 4233.05 3747.86 4257.91 3756.38C4282.77 3764.89 4305.65 3778.35 4325.16 3795.94" stroke="#263238" stroke-width="0.530341" stroke-miterlimit="10" stroke-linecap="round"/>
<path d="M1171.51 6221.68L1239.37 6246.94" stroke="#263238" stroke-width="0.530341" stroke-miterlimit="10" stroke-linecap="round"/>
<path d="M1074.67 6367.56C1075.52 6461.72 1070.56 6555.86 1059.81 6649.41C1043.46 6764.58 1048.91 7027.37 1070.71 7109.35C1092.5 7191.33 1103.65 7208.42 1125.44 7158.88C1147.24 7109.35 1213.12 6819.56 1213.12 6819.56C1213.12 6819.56 1224.02 7011.02 1273.3 6994.67C1322.59 6978.33 1295.35 6885.2 1295.35 6802.97C1295.35 6720.74 1300.8 6693.5 1295.35 6627.86C1289.9 6562.23 1216.83 6400 1216.83 6400" fill="white"/>
<path d="M1074.67 6367.56C1075.52 6461.72 1070.56 6555.86 1059.81 6649.41C1043.46 6764.58 1048.91 7027.37 1070.71 7109.35C1092.5 7191.33 1103.65 7208.42 1125.44 7158.88C1147.24 7109.35 1213.12 6819.56 1213.12 6819.56C1213.12 6819.56 1224.02 7011.02 1273.3 6994.67C1322.59 6978.33 1295.35 6885.2 1295.35 6802.97C1295.35 6720.74 1300.8 6693.5 1295.35 6627.86C1289.9 6562.23 1216.83 6400 1216.83 6400" stroke="#263238" stroke-miterlimit="10" stroke-linecap="round"/>
<path d="M4244.42 3566.84C4241.93 3518.41 4241.93 3469.88 4244.42 3421.45C4248.88 3375.88 4230.8 3307.77 4235.26 3248.08C4239.72 3188.39 4298.91 3166.35 4289.75 3089.07C4280.58 3011.8 4262.5 3002.63 4276.12 2984.55C4289.75 2966.47 4375.2 2993.47 4380.64 3043.5C4385.5 3094.99 4385.5 3146.81 4380.64 3198.3C4376.19 3211.92 4407.89 3297.37 4389.81 3334.52C4379.45 3354.64 4371.79 3376.05 4367.02 3398.17" stroke="#263238" stroke-width="0.880843" stroke-miterlimit="10" stroke-linecap="round"/>
<path d="M4398.97 3039.54C4398.97 3039.54 4503.49 2830.5 4562.69 2825.79C4621.88 2821.09 4603.55 2875.33 4585.23 2903.07C4566.9 2930.81 4507.95 3030.37 4503.49 3071.49C4499.03 3112.6 4444.3 3248.58 4444.3 3248.58" stroke="#263238" stroke-width="0.880843" stroke-miterlimit="10" stroke-linecap="round"/>
<path d="M4504.23 3071.49C4504.23 3071.49 4663.49 3166.84 4628.07 3244.86C4592.65 3322.88 4573.34 3354.09 4546.09 3343.93C4521.94 3331.59 4500.34 3314.78 4482.44 3294.4" stroke="#263238" stroke-width="0.880843" stroke-miterlimit="10" stroke-linecap="round"/>
<path d="M4562.69 3344.18C4562.69 3344.18 4521.57 3412.29 4489.87 3453.4C4471.64 3477.15 4450.03 3498.09 4425.72 3515.57L4406.4 3582.69" stroke="#263238" stroke-width="0.880843" stroke-miterlimit="10" stroke-linecap="round"/>
<path d="M2653.11 3675.32C2653.11 3675.32 3030.81 3669.87 3080.1 3730.06C3129.39 3790.24 3726.29 4337.85 3798.36 4387.14C3870.43 4436.43 3886.04 4447.33 3886.04 4447.33C3886.04 4447.33 4181.51 3778.6 4181.51 3746.4C4181.51 3714.21 4231.05 3565.85 4231.05 3565.85C4231.05 3565.85 4324.17 3576.75 4346.22 3576.75C4368.26 3576.75 4428.2 3648.08 4428.2 3648.08C4428.2 3648.08 4346.22 3981.94 4346.22 4019.59C4346.22 4057.24 4192.91 4578.1 4121.58 4737.85C4050.25 4897.6 3951.92 4874.57 3793.16 4825.28C3634.4 4775.99 3201.96 4529.8 3201.96 4529.8" stroke="#263238" stroke-width="1.06068" stroke-miterlimit="10" stroke-linecap="round"/>
<path d="M2018.07 5783.29C2018.07 5783.29 1798.87 6331.64 1739.68 6704.89C1680.48 7078.14 1705.75 7950.95 1688.66 8044.32C1671.57 8137.7 1434.29 8578.31 1434.29 8790.32C1434.29 9002.33 1307.24 10095.8 1307.24 10095.8L1391.94 10146.6C1391.94 10146.6 1689.15 9230.19 1798.87 8993.66C1908.59 8757.13 2061.66 8196.89 2104.01 8086.67C2146.36 7976.46 2443.33 7094.73 2460.17 6984.52C2477.01 6874.3 2578.8 6603.1 2578.8 6603.1C2578.8 6603.1 2799.23 7950.95 2841.59 8230.82C2883.94 8510.7 3180.66 10028 3180.66 10028C3200.14 10032.7 3220.05 10035.5 3240.1 10036.4C3264.87 10036.4 3274.03 9994.03 3274.03 9994.03C3274.03 9994.03 3392.67 8917.38 3358.73 8629.08C3324.8 8340.79 3223.26 7985.13 3223.26 7883.08C3223.26 7781.04 3375.82 6899.81 3375.82 6595.17C3375.82 6290.53 3177.68 5761.74 3177.68 5761.74C3177.68 5761.74 2474.53 6116.41 2018.07 5783.29Z" fill="#263238"/>
<path d="M3220.04 7939.06C3220.04 7939.06 3144.5 8262.53 3041.21 8434.41" stroke="white" stroke-width="0.530341" stroke-miterlimit="10" stroke-linecap="round"/>
<path d="M3199.48 8269.46C3199.48 8269.46 3137.56 8503.26 3013.72 8613.48" stroke="white" stroke-width="0.530341" stroke-miterlimit="10" stroke-linecap="round"/>
<path d="M1733.98 8166.18C1733.98 8166.18 1782.03 8448.28 1837.01 8565.18" stroke="white" stroke-width="0.530341" stroke-miterlimit="10" stroke-linecap="round"/>
<path d="M1720.11 8331.38C1720.11 8331.38 1761.47 8531.01 1837.01 8647.91" stroke="white" stroke-width="0.530341" stroke-miterlimit="10" stroke-linecap="round"/>
<path d="M2600.85 6604.34L2876.01 6377.22" stroke="white" stroke-width="0.530341" stroke-miterlimit="10" stroke-linecap="round"/>
<path d="M2731.62 6507.99L3055.08 6363.35" stroke="white" stroke-width="0.530341" stroke-miterlimit="10" stroke-linecap="round"/>
<path d="M2022.77 6122.61C2022.77 6122.61 2236.27 6260.07 2360.11 6377.22" stroke="white" stroke-width="0.530341" stroke-miterlimit="10" stroke-linecap="round"/>
<path d="M1316.15 10095.1C1316.15 10095.1 994.174 10367.5 994.174 10502.8C994.174 10638 1121.23 10629.8 1256.96 10502.8C1392.68 10375.7 1399.62 10113.9 1399.62 10113.9L1316.15 10095.1Z" fill="white" stroke="#263238" stroke-width="1.06068" stroke-miterlimit="10" stroke-linecap="round"/>
<path d="M3180.66 10028C3180.66 10028 3290.87 10299.2 3409.76 10418C3528.64 10536.9 3596.26 10579 3596.26 10451.7C3596.26 10324.4 3519.97 10180.5 3274.28 9994.03C3274.03 9994.03 3341.89 10044.8 3180.66 10028Z" fill="white" stroke="#263238" stroke-width="1.06068" stroke-miterlimit="10" stroke-linecap="round"/>
<path d="M2043.33 2521.15C2021.29 2512.98 2000.48 2503.07 1978.93 2493.91C1957.38 2484.74 1918 2479.79 1903.14 2547.41C1881.1 2646.48 2034.41 2728.21 1985.12 2810.19C1954.46 2860.06 1908.38 2898.58 1853.86 2919.91C1844.98 2922.96 1835.73 2924.79 1826.36 2925.36C1782.53 2930.81 1711.44 2925.36 1733.24 3001.89C1755.03 3078.42 1826.36 3144.3 1870.2 3144.3H1914.04C1914.04 3144.3 1963.58 3292.91 2149.33 3374.15C2335.09 3455.39 2461.4 3450.93 2505.24 3346.9C2549.08 3242.88 2582.02 3155.2 2582.02 3018.24C2582.02 2881.27 2532.49 2651.43 2532.49 2651.43C2532.49 2651.43 2488.65 2711.86 2318.99 2635.08C2206.79 2584.31 2101.78 2543.2 2043.33 2521.15Z" fill="white"/>
<mask id="mask1_40_1388" style="mask-type:luminance" maskUnits="userSpaceOnUse" x="1729" y="2488" width="854" height="943">
<path d="M2043.33 2521.15C2021.29 2512.98 2000.48 2503.07 1978.93 2493.91C1957.38 2484.74 1918 2479.79 1903.14 2547.41C1881.1 2646.48 2034.41 2728.21 1985.12 2810.19C1954.46 2860.06 1908.38 2898.58 1853.86 2919.91C1844.98 2922.96 1835.73 2924.79 1826.36 2925.36C1782.53 2930.81 1711.44 2925.36 1733.24 3001.89C1755.03 3078.42 1826.36 3144.3 1870.2 3144.3H1914.04C1914.04 3144.3 1963.58 3292.91 2149.33 3374.15C2335.09 3455.39 2461.4 3450.93 2505.24 3346.9C2549.08 3242.88 2582.02 3155.2 2582.02 3018.24C2582.02 2881.27 2532.49 2651.43 2532.49 2651.43C2532.49 2651.43 2488.65 2711.86 2318.99 2635.08C2206.79 2584.31 2101.78 2543.2 2043.33 2521.15Z" fill="white"/>
</mask>
<g mask="url(#mask1_40_1388)">
<g style="mix-blend-mode:multiply" opacity="0.5">
<path d="M2319.24 2635.08C2319.24 2635.08 2057.45 2620.47 2018.31 2626.91C1979.18 2633.35 2024.75 2750.75 2011.87 2868.15C1998.99 2985.54 2005.19 3174.77 2057.45 3233.47C2119.11 3293.99 2184.46 3350.65 2253.11 3403.13C2253.11 3403.13 2052.24 3370.68 1979.18 3285.73C1906.12 3200.77 1894.48 3155.2 1894.48 3155.2C1894.48 3155.2 1724.82 3056.13 1711.69 2979.1C1698.56 2902.08 1810.76 2942.94 1864.51 2904.8C1894.72 2884 2019.8 2844.86 1988.34 2740.59C1956.89 2636.32 1906.12 2616.76 1904.13 2546.91C1902.65 2497.38 1946.24 2483.01 1972.99 2478.55C1985.05 2476.52 1997.44 2478.34 2008.41 2483.75L2319.24 2635.08Z" fill="#2040F9"/>
</g>
</g>
<path d="M2043.33 2521.15C2021.29 2512.98 2000.48 2503.07 1978.93 2493.91C1957.38 2484.74 1918 2479.79 1903.14 2547.41C1881.1 2646.48 2034.41 2728.21 1985.12 2810.19C1954.46 2860.06 1908.38 2898.58 1853.86 2919.91C1844.98 2922.96 1835.73 2924.79 1826.36 2925.36C1782.53 2930.81 1711.44 2925.36 1733.24 3001.89C1755.03 3078.42 1826.36 3144.3 1870.2 3144.3H1914.04C1914.04 3144.3 1963.58 3292.91 2149.33 3374.15C2335.09 3455.39 2461.4 3450.93 2505.24 3346.9C2549.08 3242.88 2582.02 3155.2 2582.02 3018.24C2582.02 2881.27 2532.49 2651.43 2532.49 2651.43C2532.49 2651.43 2488.65 2711.86 2318.99 2635.08C2206.79 2584.31 2101.78 2543.2 2043.33 2521.15Z" stroke="#263238" stroke-width="1.06068" stroke-miterlimit="10" stroke-linecap="round"/>
<path d="M2236.76 2845.61C2240.23 2866.41 2234.53 2884.74 2223.88 2886.47C2213.23 2888.21 2202.34 2872.6 2199.12 2851.8C2195.9 2831 2201.59 2812.42 2212 2810.69C2222.4 2808.95 2233.3 2825.79 2236.76 2845.61Z" fill="#263238"/>
<path d="M2463.39 2807.71C2466.61 2828.52 2460.91 2846.85 2450.51 2848.58C2440.11 2850.31 2428.96 2834.71 2425.74 2813.91C2422.52 2793.1 2427.97 2774.77 2438.37 2773.04C2448.77 2771.31 2459.92 2786.91 2463.39 2807.71Z" fill="#263238"/>
<path d="M2105.5 2744.56C2119.35 2723.96 2138.15 2707.16 2160.17 2695.69C2182.2 2684.23 2206.74 2678.46 2231.56 2678.92" stroke="#263238" stroke-width="1.06068" stroke-miterlimit="10" stroke-linecap="round"/>
<path d="M2401.22 2695.27C2422.26 2687.92 2445.03 2687.13 2466.53 2693.01C2488.03 2698.89 2507.23 2711.17 2521.59 2728.21" stroke="#263238" stroke-width="1.06068" stroke-miterlimit="10" stroke-linecap="round"/>
<path d="M2379.43 2788.39C2376.4 2823 2376.4 2857.81 2379.43 2892.42C2384.87 2936.26 2417.57 2947.15 2406.67 2980.1C2395.77 3013.04 2351.93 3012.79 2351.93 3012.79" stroke="#263238" stroke-width="1.06068" stroke-miterlimit="10" stroke-linecap="round"/>
<path d="M2297.2 3144.3C2278.44 3148.74 2258.94 3149.06 2240.05 3145.26C2221.15 3141.45 2203.3 3133.61 2187.72 3122.26" stroke="#263238" stroke-width="1.06068" stroke-miterlimit="10" stroke-linecap="round"/>
</svg>
